<svg width="32" height="33" viewBox="0 0 32 33" fill="none" xmlns="http://www.w3.org/2000/svg">
<circle cx="16" cy="16.5" r="16" fill="#FDFDFD"/>
<g clip-path="url(#clip0_203_12961)">
<path d="M15.9963 22.5C15.9963 22.8687 15.6977 23.1667 15.3297 23.1667H11.3297C9.49167 23.1667 7.99634 21.6713 7.99634 19.8333V11.8333C7.99634 9.99533 9.49167 8.5 11.3297 8.5H19.3297C21.1677 8.5 22.663 9.99533 22.663 11.8333V15.8333C22.663 16.202 22.3643 16.5 21.9963 16.5C21.6283 16.5 21.3297 16.202 21.3297 15.8333V11.8333C21.3297 10.7307 20.4323 9.83333 19.3297 9.83333H11.3297C10.227 9.83333 9.32967 10.7307 9.32967 11.8333V16.4727L11.2017 14.6007C12.223 13.5787 13.885 13.5787 14.907 14.6007L18.4677 18.1613C18.7283 18.422 18.7283 18.8433 18.4677 19.104C18.3377 19.234 18.167 19.2993 17.9963 19.2993C17.8257 19.2993 17.655 19.234 17.525 19.104L13.9643 15.5433C13.463 15.0427 12.647 15.042 12.1443 15.5433L9.32967 18.358V19.8333C9.32967 20.936 10.227 21.8333 11.3297 21.8333H15.3297C15.6977 21.8333 15.9963 22.1313 15.9963 22.5ZM17.9963 10.8333C19.099 10.8333 19.9963 11.7307 19.9963 12.8333C19.9963 13.936 19.099 14.8333 17.9963 14.8333C16.8937 14.8333 15.9963 13.936 15.9963 12.8333C15.9963 11.7307 16.8937 10.8333 17.9963 10.8333ZM17.9963 12.1667C17.629 12.1667 17.3297 12.4653 17.3297 12.8333C17.3297 13.2013 17.629 13.5 17.9963 13.5C18.3637 13.5 18.663 13.2013 18.663 12.8333C18.663 12.4653 18.3637 12.1667 17.9963 12.1667ZM23.3297 20.5H21.3297V18.5C21.3297 18.1313 21.031 17.8333 20.663 17.8333C20.295 17.8333 19.9963 18.1313 19.9963 18.5V20.5H17.9963C17.6283 20.5 17.3297 20.798 17.3297 21.1667C17.3297 21.5353 17.6283 21.8333 17.9963 21.8333H19.9963V23.8333C19.9963 24.202 20.295 24.5 20.663 24.5C21.031 24.5 21.3297 24.202 21.3297 23.8333V21.8333H23.3297C23.6977 21.8333 23.9963 21.5353 23.9963 21.1667C23.9963 20.798 23.6977 20.5 23.3297 20.5Z" fill="#5BB4E8"/>
</g>
<defs>
<clipPath id="clip0_203_12961">
<rect width="16" height="16" fill="white" transform="translate(8 8.5)"/>
</clipPath>
</defs>
</svg>
