<svg width="284" height="81" viewBox="0 0 284 81" fill="none" xmlns="http://www.w3.org/2000/svg">
<mask id="mask0_507_4117" style="mask-type:luminance" maskUnits="userSpaceOnUse" x="0" y="0" width="71" height="81">
<path d="M16.3487 16.625C18.7378 14.2197 21.5983 12.2782 24.7695 10.9515C24.7695 10.9515 33.6617 5.04072 51.8853 4.72792C46.8178 1.82646 40.9576 0.165405 34.7116 0.165405C25.1231 0.165405 16.4452 4.08075 10.1671 10.4014C3.88899 16.7221 0 25.4588 0 35.1123C0 44.7659 3.88899 53.5026 10.1671 59.8233C10.7992 60.4596 11.4527 61.0637 12.1276 61.6461C12.1276 61.6461 12.5562 62.0452 13.349 62.66C21.4269 68.8512 35.558 69.5307 48.5963 69.8651C37.7542 72.0871 21.4162 72.3459 13.349 65.9821C22.7875 93.6161 51.1461 67.8589 70.6553 80.8346C66.5734 70.4799 61.8702 64.8496 56.7599 61.8403C53.503 59.9311 49.9783 59.0359 46.2393 58.7231C34.4759 57.7523 25.3695 62.6708 16.3487 53.5889C11.6455 48.8538 8.74218 42.3174 8.74218 35.1015C8.74218 27.8857 11.6455 21.3493 16.3487 16.6142V16.625Z" fill="white"/>
</mask>
<g mask="url(#mask0_507_4117)">
<rect x="-2.2793" y="-6.67328" width="72.9455" height="88.9024" fill="#0A8FDC"/>
</g>
<mask id="mask1_507_4117" style="mask-type:luminance" maskUnits="userSpaceOnUse" x="24" y="4" width="46" height="57">
<path d="M34.7117 8.97754C41.879 8.97754 48.3713 11.9006 53.0745 16.6357C57.7777 21.3708 60.6811 27.9071 60.6811 35.123C60.6811 42.3389 57.7777 48.8753 53.0745 53.6104C52.0139 54.6782 50.8675 55.6489 49.6462 56.5118C49.7534 56.5334 49.8498 56.5442 49.9462 56.5658C53.3852 57.2129 56.3636 58.4533 58.9669 60.1252C59.0633 60.0281 59.1705 59.931 59.2669 59.8339C65.5557 53.5133 69.434 44.7766 69.434 35.123C69.434 25.4695 65.545 16.7327 59.2669 10.4121C57.0814 8.21172 54.5958 6.30259 51.896 4.74939C33.6724 5.06219 24.7803 10.973 24.7803 10.973C27.8443 9.68942 31.1976 8.98832 34.7224 8.98832L34.7117 8.97754Z" fill="white"/>
</mask>
<g mask="url(#mask1_507_4117)">
<rect x="20.5161" y="4.72433" width="56.9887" height="61.5478" fill="url(#paint0_linear_507_4117)"/>
</g>
<path fill-rule="evenodd" clip-rule="evenodd" d="M34.6685 15.2986C38.0326 15.2986 40.7752 18.0706 40.7752 21.4574V28.188H47.4604C50.8244 28.188 53.5671 30.96 53.5671 34.3468C53.5671 37.7336 50.8137 40.5057 47.4604 40.5057H40.7752V47.2362C40.7752 50.623 38.0218 53.3843 34.6685 53.3843C31.3045 53.3843 28.5619 50.6122 28.5619 47.2362V40.5057H21.8767C18.5126 40.5057 15.7593 37.7336 15.7593 34.3468C15.7593 30.96 18.5126 28.188 21.8767 28.188H28.5619V21.4574C28.5619 18.0706 31.3152 15.2986 34.6685 15.2986Z" fill="#FFF200"/>
<mask id="mask2_507_4117" style="mask-type:luminance" maskUnits="userSpaceOnUse" x="15" y="15" width="39" height="39">
<path d="M34.6685 15.2986C38.0326 15.2986 40.7752 18.0706 40.7752 21.4574V28.188H47.4604C50.8244 28.188 53.5671 30.96 53.5671 34.3468C53.5671 37.7336 50.8137 40.5057 47.4604 40.5057H40.7752V47.2362C40.7752 50.623 38.0218 53.3843 34.6685 53.3843C31.3045 53.3843 28.5619 50.6122 28.5619 47.2362V40.5057H21.8767C18.5126 40.5057 15.7593 37.7336 15.7593 34.3468C15.7593 30.96 18.5126 28.188 21.8767 28.188H28.5619V21.4574C28.5619 18.0706 31.3152 15.2986 34.6685 15.2986Z" fill="white"/>
</mask>
<g mask="url(#mask2_507_4117)">
<path d="M53.5781 43.6336L52.8068 44.4425L24.084 16.3879L25.1446 15.2985H53.5781V43.6336Z" fill="#FBA51A"/>
<path d="M24.0794 16.3867L23.9302 16.5414L52.6415 44.6023L52.7908 44.4475L24.0794 16.3867Z" fill="#FBA51A"/>
<path d="M23.926 16.5518L23.7769 16.7067L52.5077 44.7473L52.6568 44.5924L23.926 16.5518Z" fill="#FBA51A"/>
<path d="M23.7757 16.7016L23.6265 16.8564L52.3475 44.9072L52.4967 44.7523L23.7757 16.7016Z" fill="#FBA51A"/>
<path d="M23.637 16.858L23.4878 17.0129L52.2089 45.0636L52.3581 44.9088L23.637 16.858Z" fill="#FBA51A"/>
<path d="M23.4793 17.0174L23.3301 17.1723L52.0511 45.223L52.2003 45.0681L23.4793 17.0174Z" fill="#FBA51A"/>
<path d="M23.3337 17.1834L23.1846 17.3383L51.9154 45.3789L52.0645 45.224L23.3337 17.1834Z" fill="#FBA51A"/>
<path d="M23.1893 17.3239L23.04 17.4787L51.7514 45.5395L51.9006 45.3847L23.1893 17.3239Z" fill="#FBA51A"/>
<path d="M23.0183 17.4811L22.8691 17.636L51.5999 45.6766L51.7491 45.5217L23.0183 17.4811Z" fill="#FBA51A"/>
<path d="M22.886 17.6387L22.7368 17.7935L51.4579 45.8442L51.6071 45.6894L22.886 17.6387Z" fill="#FBA51A"/>
<path d="M22.7357 17.7887L22.5864 17.9435L51.2978 46.0043L51.447 45.8495L22.7357 17.7887Z" fill="#FBA51A"/>
<path d="M22.5832 17.9532L22.4341 18.1081L51.1649 46.1487L51.314 45.9938L22.5832 17.9532Z" fill="#FBA51A"/>
<path d="M22.4324 18.1035L22.2832 18.2583L51.0043 46.309L51.1535 46.1542L22.4324 18.1035Z" fill="#FBA51A"/>
<path d="M22.2825 18.2597L22.1333 18.4146L50.8544 46.4653L51.0036 46.3104L22.2825 18.2597Z" fill="#FBA51A"/>
<path d="M22.1355 18.4195L21.9863 18.5743L50.7074 46.6251L50.8566 46.4702L22.1355 18.4195Z" fill="#FBA51A"/>
<path d="M21.9719 18.5778L21.8228 18.7327L50.5536 46.7733L50.7027 46.6184L21.9719 18.5778Z" fill="#FBA51A"/>
<path d="M21.8343 18.7256L21.6851 18.8804L50.3964 46.9412L50.5457 46.7864L21.8343 18.7256Z" fill="#FBA51A"/>
<path d="M21.6755 18.8828L21.5264 19.0377L50.2572 47.0783L50.4063 46.9234L21.6755 18.8828Z" fill="#FBA51A"/>
<path d="M21.532 19.0403L21.3828 19.1952L50.1039 47.2459L50.2531 47.091L21.532 19.0403Z" fill="#FBA51A"/>
<path d="M21.3845 19.1893L21.2354 19.3441L49.9564 47.3948L50.1056 47.24L21.3845 19.1893Z" fill="#FBA51A"/>
<path d="M21.2351 19.3564L21.0859 19.5112L49.807 47.5619L49.9562 47.4071L21.2351 19.3564Z" fill="#FBA51A"/>
<path d="M21.0725 19.5146L20.9233 19.6695L49.6541 47.7101L49.8033 47.5552L21.0725 19.5146Z" fill="#FBA51A"/>
<path d="M20.9364 19.6549L20.7871 19.8097L49.4985 47.8705L49.6477 47.7157L20.9364 19.6549Z" fill="#FBA51A"/>
<path d="M20.7756 19.8196L20.6265 19.9745L49.3573 48.0151L49.5064 47.8602L20.7756 19.8196Z" fill="#FBA51A"/>
<path d="M20.6345 19.9697L20.4854 20.1245L49.2064 48.1752L49.3556 48.0204L20.6345 19.9697Z" fill="#FBA51A"/>
<path d="M20.4846 20.1261L20.3354 20.281L49.0565 48.3317L49.2057 48.1768L20.4846 20.1261Z" fill="#FBA51A"/>
<path d="M20.3269 20.2857L20.1777 20.4406L48.8988 48.4913L49.048 48.3364L20.3269 20.2857Z" fill="#FBA51A"/>
<path d="M20.1828 20.4517L20.0337 20.6066L48.7645 48.6472L48.9136 48.4923L20.1828 20.4517Z" fill="#FBA51A"/>
<path d="M20.0355 20.5922L19.8862 20.747L48.5976 48.8078L48.7468 48.653L20.0355 20.5922Z" fill="#FBA51A"/>
<path d="M19.8786 20.7492L19.7295 20.9041L48.4603 48.9447L48.6094 48.7898L19.8786 20.7492Z" fill="#FBA51A"/>
<path d="M19.7342 20.907L19.585 21.0618L48.306 49.1125L48.4552 48.9577L19.7342 20.907Z" fill="#FBA51A"/>
<path d="M19.5764 21.0555L19.4272 21.2103L48.1483 49.261L48.2975 49.1062L19.5764 21.0555Z" fill="#FBA51A"/>
<path d="M19.4373 21.2228L19.2881 21.3776L48.0092 49.4283L48.1583 49.2735L19.4373 21.2228Z" fill="#FBA51A"/>
<path d="M19.2801 21.3717L19.1309 21.5266L47.8519 49.5773L48.0011 49.4225L19.2801 21.3717Z" fill="#FBA51A"/>
<path d="M19.1364 21.5373L18.9873 21.6922L47.7181 49.7328L47.8672 49.5779L19.1364 21.5373Z" fill="#FBA51A"/>
<path d="M18.9876 21.6778L18.8384 21.8326L47.5497 49.8934L47.699 49.7386L18.9876 21.6778Z" fill="#FBA51A"/>
<path d="M18.8215 21.8457L18.6724 22.0005L47.4032 50.0412L47.5523 49.8863L18.8215 21.8457Z" fill="#FBA51A"/>
<path d="M18.6868 21.9923L18.5376 22.1472L47.2587 50.1979L47.4079 50.0431L18.6868 21.9923Z" fill="#FBA51A"/>
<path d="M18.5369 22.1446L18.3877 22.2995L47.1088 50.3502L47.258 50.1954L18.5369 22.1446Z" fill="#FBA51A"/>
<path d="M18.3977 22.3007L18.2485 22.4555L46.9696 50.5062L47.1188 50.3514L18.3977 22.3007Z" fill="#FBA51A"/>
<path d="M18.2361 22.4588L18.0869 22.6136L46.8177 50.6543L46.9668 50.4994L18.2361 22.4588Z" fill="#FBA51A"/>
<path d="M18.0946 22.6072L17.9453 22.762L46.6567 50.8228L46.8059 50.668L18.0946 22.6072Z" fill="#FBA51A"/>
<path d="M17.9397 22.7748L17.7905 22.9297L46.5213 50.9703L46.6705 50.8154L17.9397 22.7748Z" fill="#FBA51A"/>
<path d="M17.7864 22.9144L17.6372 23.0692L46.3583 51.12L46.5075 50.9651L17.7864 22.9144Z" fill="#FBA51A"/>
<path d="M17.6472 23.0815L17.498 23.2363L46.2191 51.287L46.3683 51.1322L17.6472 23.0815Z" fill="#FBA51A"/>
<path d="M17.4895 23.2302L17.3403 23.3851L46.0614 51.4358L46.2106 51.2809L17.4895 23.2302Z" fill="#FBA51A"/>
<path d="M17.3362 23.396L17.187 23.5509L45.9178 51.5916L46.067 51.4367L17.3362 23.396Z" fill="#FBA51A"/>
<path d="M17.1966 23.5365L17.0474 23.6913L45.7587 51.7521L45.908 51.5973L17.1966 23.5365Z" fill="#FBA51A"/>
<path d="M17.0398 23.7123L16.8906 23.8672L45.6214 51.9078L45.7706 51.7529L17.0398 23.7123Z" fill="#FBA51A"/>
<path d="M16.8963 23.8513L16.7471 24.0061L45.4681 52.0568L45.6173 51.902L16.8963 23.8513Z" fill="#FBA51A"/>
<path d="M16.743 24.0015L16.5938 24.1563L45.3051 52.2171L45.4543 52.0623L16.743 24.0015Z" fill="#FBA51A"/>
<path d="M16.5857 24.1767L16.4365 24.3315L45.1673 52.3722L45.3165 52.2173L16.5857 24.1767Z" fill="#FBA51A"/>
<path d="M16.4427 24.316L16.2935 24.4709L45.0145 52.5216L45.1637 52.3668L16.4427 24.316Z" fill="#FBA51A"/>
<path d="M16.2927 24.4832L16.1436 24.638L44.8646 52.6887L45.0138 52.5339L16.2927 24.4832Z" fill="#FBA51A"/>
<path d="M16.135 24.6323L15.9858 24.7871L44.7069 52.8378L44.8561 52.683L16.135 24.6323Z" fill="#FBA51A"/>
<path d="M15.9934 24.7979L15.8442 24.9528L44.575 52.9934L44.7242 52.8385L15.9934 24.7979Z" fill="#FBA51A"/>
<path d="M44.5571 52.9958L44.4071 53.1576L15.7593 25.1677V25.0382L15.8343 24.9519L44.5571 52.9958Z" fill="#FBA51A"/>
<path d="M44.4071 53.1573L44.2571 53.3084L15.7593 25.4695V25.1674L44.4071 53.1573Z" fill="#FBA51A"/>
<path d="M44.2571 53.3082L44.1928 53.3729H44.0214L15.7593 25.7713V25.4693L44.2571 53.3082Z" fill="#FBA51A"/>
<path d="M43.7107 53.3732L15.7593 26.0736V25.7716L44.0214 53.3732H43.7107Z" fill="#FBA51A"/>
<path d="M43.4 53.373L15.7593 26.3754V26.0734L43.7107 53.373H43.4Z" fill="#FBA51A"/>
<path d="M43.0893 53.3729L15.7593 26.6773V26.3753L43.4 53.3729H43.0893Z" fill="#FBA51A"/>
<path d="M42.7786 53.3733L15.7593 26.9798V26.6778L43.0893 53.3733H42.7786Z" fill="#FBA51A"/>
<path d="M42.4679 53.3732L15.7593 27.2817V26.9796L42.7786 53.3732H42.4679Z" fill="#FBA51A"/>
<path d="M42.1572 53.373L15.7593 27.5835V27.2815L42.4679 53.373H42.1572Z" fill="#FBA51A"/>
<path d="M41.8466 53.3733L15.7593 27.8858V27.5838L42.1572 53.3733H41.8466Z" fill="#FBA51A"/>
<path d="M41.5466 53.3731L15.7593 28.1876V27.8856L41.8466 53.3731H41.5466Z" fill="#FBA51A"/>
<path d="M15.7593 28.1875L41.5466 53.373H15.7593V28.1875Z" fill="#FBA51A"/>
</g>
<path d="M88.0953 29.46H94.3353V38.708L97.7593 29.46H104.479L100.191 40.628L104.255 52.5H97.5353L94.3353 42.74V52.5H88.0953V29.46ZM112.868 52.82C111.61 52.82 110.458 52.6813 109.412 52.404C108.388 52.1267 107.503 51.636 106.756 50.932C106.01 50.228 105.434 49.2573 105.028 48.02C104.623 46.7827 104.42 45.204 104.42 43.284C104.42 40.1693 104.996 37.8227 106.148 36.244C107.322 34.644 109.199 33.844 111.78 33.844C114.127 33.844 115.823 34.4947 116.868 35.796C117.935 37.076 118.468 38.9853 118.468 41.524C118.468 42.1213 118.447 42.74 118.404 43.38C118.362 43.9987 118.287 44.564 118.18 45.076H110.532C110.66 46.3773 111.023 47.252 111.62 47.7C112.218 48.1267 113.22 48.34 114.628 48.34C115.119 48.34 115.62 48.2973 116.132 48.212C116.666 48.1267 117.178 48.0307 117.668 47.924V52.276C116.922 52.4253 116.132 52.5533 115.3 52.66C114.49 52.7667 113.679 52.82 112.868 52.82ZM112.004 38.068C111.151 38.068 110.65 39.22 110.5 41.524H113.124C113.124 41.0547 113.103 40.5533 113.06 40.02C113.039 39.4867 112.943 39.028 112.772 38.644C112.623 38.26 112.367 38.068 112.004 38.068ZM122.916 52.5L118.628 34.1H124.548L126.404 46.292H126.468L128.26 34.1H134.02L129.668 52.5H122.916ZM142.806 52.82C141.547 52.82 140.395 52.6813 139.35 52.404C138.326 52.1267 137.44 51.636 136.694 50.932C135.947 50.228 135.371 49.2573 134.966 48.02C134.56 46.7827 134.358 45.204 134.358 43.284C134.358 40.1693 134.934 37.8227 136.086 36.244C137.259 34.644 139.136 33.844 141.718 33.844C144.064 33.844 145.76 34.4947 146.806 35.796C147.872 37.076 148.406 38.9853 148.406 41.524C148.406 42.1213 148.384 42.74 148.342 43.38C148.299 43.9987 148.224 44.564 148.118 45.076H140.47C140.598 46.3773 140.96 47.252 141.558 47.7C142.155 48.1267 143.158 48.34 144.566 48.34C145.056 48.34 145.558 48.2973 146.07 48.212C146.603 48.1267 147.115 48.0307 147.606 47.924V52.276C146.859 52.4253 146.07 52.5533 145.238 52.66C144.427 52.7667 143.616 52.82 142.806 52.82ZM141.942 38.068C141.088 38.068 140.587 39.22 140.438 41.524H143.062C143.062 41.0547 143.04 40.5533 142.998 40.02C142.976 39.4867 142.88 39.028 142.71 38.644C142.56 38.26 142.304 38.068 141.942 38.068ZM155.466 35.348C156.725 34.3453 158.09 33.844 159.562 33.844C161.034 33.844 162.25 34.3027 163.21 35.22C164.191 36.1373 164.682 37.5133 164.682 39.348V52.5H158.922V40.276C158.922 38.9747 158.335 38.324 157.162 38.324C156.693 38.324 156.277 38.4413 155.914 38.676V52.5H150.154V34.1H155.05L155.466 35.348ZM181.012 47.284C181.822 47.284 182.43 47.1667 182.836 46.932C183.241 46.6973 183.444 46.3133 183.444 45.78C183.444 45.4173 183.348 45.1293 183.156 44.916C182.964 44.7027 182.622 44.4893 182.132 44.276L178.74 42.708C177.481 42.132 176.51 41.364 175.828 40.404C175.145 39.444 174.804 38.0467 174.804 36.212C174.804 33.8653 175.412 32.116 176.628 30.964C177.865 29.7907 179.902 29.1933 182.74 29.172C183.913 29.172 184.98 29.2253 185.94 29.332C186.9 29.4387 187.668 29.556 188.244 29.684C188.82 29.7907 189.108 29.844 189.108 29.844L188.468 34.996C188.468 34.996 188.201 34.964 187.668 34.9C187.156 34.836 186.516 34.7827 185.748 34.74C184.98 34.676 184.233 34.644 183.508 34.644C182.74 34.644 182.153 34.7613 181.748 34.996C181.364 35.2093 181.172 35.6253 181.172 36.244C181.172 36.5853 181.321 36.8733 181.62 37.108C181.918 37.3213 182.334 37.5453 182.868 37.78L185.588 38.964C187.038 39.604 188.094 40.404 188.756 41.364C189.417 42.3027 189.748 43.6467 189.748 45.396C189.748 47.764 189.129 49.588 187.892 50.868C186.654 52.148 184.617 52.7987 181.78 52.82C180.372 52.82 179.06 52.724 177.844 52.532C176.628 52.3613 175.55 52.1587 174.612 51.924L175.252 46.772C175.252 46.772 175.508 46.8147 176.02 46.9C176.553 46.9853 177.257 47.0707 178.132 47.156C179.006 47.2413 179.966 47.284 181.012 47.284ZM190.249 29.46H205.577L204.617 34.58H198.249V38.1H204.233L203.273 43.22H198.249V47.38H205.801L204.841 52.5H192.009V33.844L190.249 29.46ZM215.368 29.46C217.246 29.46 218.814 29.7053 220.072 30.196C221.331 30.6653 222.27 31.4653 222.888 32.596C223.528 33.7053 223.848 35.2307 223.848 37.172C223.848 38.7933 223.603 40.1267 223.112 41.172C222.622 42.196 221.875 43.0173 220.872 43.636L224.776 52.5H217.832L215.304 45.012H214.28V52.5H208.04V33.844L206.28 29.46H215.368ZM214.28 40.724C215.262 40.724 215.987 40.4787 216.456 39.988C216.926 39.4973 217.16 38.6333 217.16 37.396C217.16 36.4147 217.075 35.6893 216.904 35.22C216.734 34.7293 216.435 34.3987 216.008 34.228C215.603 34.0573 215.027 33.972 214.28 33.972V40.724ZM224.128 29.46H230.784L232.224 39.092L233.216 45.684L234.304 39.092L235.744 29.46H242.048L236.8 52.5H229.376L224.128 29.46ZM243.658 29.46H249.898V52.5H243.658V29.46ZM251.983 41.14C251.983 38.1107 252.335 35.732 253.039 34.004C253.743 32.2547 254.799 31.0173 256.207 30.292C257.636 29.5667 259.407 29.204 261.519 29.204C262.201 29.204 262.98 29.2467 263.855 29.332C264.751 29.396 265.615 29.524 266.447 29.716V38.164H262.575L262.063 34.292C261.487 34.292 260.985 34.3667 260.559 34.516C260.153 34.644 259.812 34.932 259.535 35.38C259.257 35.828 259.044 36.5107 258.895 37.428C258.767 38.3453 258.703 39.572 258.703 41.108C258.703 42.772 258.884 44.084 259.247 45.044C259.609 45.9827 260.153 46.6547 260.879 47.06C261.625 47.444 262.575 47.636 263.727 47.636C264.239 47.636 264.729 47.604 265.199 47.54C265.668 47.476 266.169 47.4013 266.703 47.316V52.372C266.084 52.5213 265.337 52.628 264.463 52.692C263.588 52.7773 262.809 52.82 262.127 52.82C258.479 52.82 255.876 51.8387 254.319 49.876C252.761 47.9133 251.983 45.0013 251.983 41.14ZM267.343 29.46H282.671L281.711 34.58H275.343V38.1H281.327L280.367 43.22H275.343V47.38H282.895L281.935 52.5H269.103V33.844L267.343 29.46Z" fill="#0A8FDC"/>
<defs>
<linearGradient id="paint0_linear_507_4117" x1="49.0105" y1="4.72433" x2="49.0105" y2="66.2721" gradientUnits="userSpaceOnUse">
<stop stop-color="#5EC4FF"/>
<stop offset="1" stop-color="#0A8FDC"/>
</linearGradient>
</defs>
</svg>
