<?xml version="1.0" encoding="UTF-8"?>
<svg xmlns="http://www.w3.org/2000/svg" version="1.1" viewBox="0 0 2162.8 2213.6">
  <defs>
    <style>
      .cls-1 {
        fill: #fff;
      }

      .cls-2 {
        fill: none;
        stroke: #000;
        stroke-linecap: round;
        stroke-linejoin: round;
        stroke-width: 18px;
      }

      .cls-3 {
        fill: #2a92d8;
      }

      .cls-4 {
        fill: #dbaf32;
      }
    </style>
  </defs>
  <!-- Generator: Adobe Illustrator 28.6.0, SVG Export Plug-In . SVG Version: 1.2.0 Build 709)  -->
  <g>
    <g id="Layer_1">
      <g>
        <g>
          <g>
            <g>
              <g>
                <path class="cls-3" d="M892,97.6c-113.8,0-206.1,92.3-206.1,206.1v418.1h-398.1c-113.8,0-206.1,72.3-206.1,186.1l24,388.6c0,113.8,92.3,206.1,206.1,206.1h383.1l17,399.1c0,113.8,92.3,206.1,206.1,206.1l145.4,6.9,12.5.6,5.4.3,5.4.3V97.6h-194.8ZM1063.5,595.8h-73.4c-35,0-63.5-28.5-63.5-63.5s28.5-63.5,63.5-63.5h73.4v126.9Z"/>
                <path d="M1086.9,85.1h-194.8c-58.4,0-113.3,22.7-154.6,64-41.3,41.3-64,96.2-64,154.6v402.6h-385.6c-58.4,0-108.5,9.7-154.6,47-45.4,36.7-64,96.2-64,154.6s0,.5,0,.8l24,388.3c.1,58.2,22.8,113,64,154.2,41.3,41.3,96.2,64,154.6,64h371.1l16.5,386.9c0,58.3,22.8,113.1,64,154.3s96,64,154.3,64l154.2,7.3h0l9.5.4,4.9.2c.2,0,.4,0,.6,0,1.4,0,2.8-.2,4.1-.7h0c1.7-.6,3.2-1.5,4.5-2.8,2.5-2.4,3.9-5.6,3.9-9.1V97.6c0-6.9-5.6-12.5-12.5-12.5ZM724.4,1901.3l-17-399.1c-.3-6.7-5.8-12-12.5-12h-383.1c-106.8,0-193.6-86.8-193.6-193.6s0-.5,0-.8l-24-388.3c.2-106.6,87-177.2,193.6-177.2h398.1c6.9,0,12.5-4.6,12.5-11.5v-415.1c0-106.8,86.9-193.6,193.6-193.6h182.3v1992.8l-10.9-.5-144.8-6.9c-.2,0-.4,0-.6,0-106.8,0-193.6-86.8-193.6-193.6s0-.4,0-.5Z"/>
              </g>
              <g>
                <path class="cls-4" d="M1076,97.7v2018.3s168.8-8,168.8-8c113.8,0,206.1-92.3,206.1-206.1l17-399.1h383.1c113.8,0,206.1-92.3,206.1-206.1l24-388.7c0-113.8-92.3-183.1-206.1-183.1h-398.1v-421.1c0-113.8-92.3-206.1-206.1-206.1h-194.8Z"/>
                <path d="M2029.6,753.4c-40.1-32-96.2-49-154.6-49h-385.6v-400.6c0-58.4-22.7-113.3-64-154.6-41.3-41.3-96.2-64-154.6-64h-194.8c-6.9,0-12.5,5.6-12.5,12.5v2018.3c0,3.4,1.4,6.7,3.9,9.1,1.3,1.2,2.9,2.2,4.5,2.8h0c1.3.4,2.7.7,4.1.7s.4,0,.6,0l4.8-.2,9.5-.4h0l154.2-7.3c58.3,0,113.1-22.8,154.3-64s64-96,64-154.3l16.5-386.9h371.1c58.4,0,113.3-22.7,154.6-64,41.2-41.2,63.9-95.9,64-154.2l24-388.3c0-.2,0-.5,0-.8,0-58.4-18.4-118.1-64-154.6ZM2044.7,1296.6c0,106.8-86.9,193.6-193.6,193.6h-383.1c-6.7,0-12.2,5.3-12.5,12l-17,399.1c0,.2,0,.4,0,.5,0,106.8-86.9,193.6-193.6,193.6s-.4,0-.6,0l-144.9,6.9-10.9.5V110.1h182.3c106.8,0,193.6,86.9,193.6,193.6v413.1c0,6.9,5.6,12.5,12.5,12.5h398.1c106.6,0,193.4,71.7,193.6,178.2l-24,388.3c0,.3,0,.5,0,.8Z"/>
              </g>
            </g>
            <polygon class="cls-4" points="1040.8 468.4 1128.8 468.9 1128.8 595.8 1026.6 595.8 1040.8 468.4"/>
            <g>
              <path class="cls-4" d="M1036.5,928.9s-110.1,8.6-117.6,39.2,73.9,78.6,73.9,78.6l52.7,18.4,2.8-59.8-.9-74.8-10.8-1.5Z"/>
              <path class="cls-4" d="M1048.3,1178.5s-70.2,27.2-74.9,41.1l6.4,25.7,24.2,32,39.4,33.3,9,2.9v-17.9l-4.1-119v1.9Z"/>
              <path class="cls-4" d="M1056,1418.3s-35.6,7.7-34.1,19.4c0,0-6.2,32,7,43.3l25.9,32.5,7.5-10.8s-15.5-40.3-6.3-84.4Z"/>
            </g>
            <g>
              <path class="cls-1" d="M1122,1705.6c-5.4,0-10.3-3.2-12.8-8.3-3.1-6.2-2-14,2.6-19,11.2-12.3,16.7-23,17.7-34.4.9-11.5-4.5-22.1-10.2-28.4-.4-.4-.8-.8-1.1-1.2-6.6-8.6-7.8-19.8-3.1-29.4,4-8.1,11.4-13.2,19.4-13.2s10.1,1.3,15.8,7.6c.3.3.5.6.7.9,10.3,14.9,16.4,33.9,16.6,52.1.5,26.9-13.1,52.6-37.2,70.4-2.4,1.8-5.3,2.8-8.3,2.8Z"/>
              <path d="M1134.3,1580.8c3,0,6.2,1.4,9.1,4.6,9,13,14.8,29.9,15,47.1.5,27.9-15.5,49.7-33.6,63.1-.9.7-1.9,1-2.9,1-1.9,0-3.7-1.2-4.8-3.3-1.5-2.9-.9-6.7,1.1-8.8,9.7-10.7,18.6-23.5,20-39.7,1.1-13.7-4.8-27.1-13-35.9,0,0,0,0-.1-.1h0s0,0,0,0c-9.3-12-1.1-28,9.1-28M1134.3,1562.8h0c-11.4,0-21.9,7-27.4,18.2-6.2,12.7-4.7,27.5,4.1,38.8.6.7,1.2,1.4,1.8,2,4.3,4.9,8.3,12.9,7.6,21.4-.9,9.3-5.6,18.3-15.4,29.1-7.1,7.6-8.7,19.5-4,29.1,4.1,8.2,12.1,13.3,20.9,13.3s9.7-1.6,13.7-4.6c26.5-19.6,41.4-47.9,40.9-77.8-.3-20.3-6.8-40.6-18.2-57.1-.4-.6-.9-1.2-1.4-1.8-6.2-6.8-14.2-10.6-22.5-10.6h0Z"/>
            </g>
            <g>
              <path class="cls-1" d="M1110,1748.9v41.6s46.6-24.5,0-43.8"/>
              <path d="M1092,1748.9v41.6c0,6.3,3.3,12.1,8.7,15.4,5.4,3.3,12.1,3.5,17.7.5,5.2-2.8,31.4-17.7,30.3-41.1-.2-5.5-2.2-13.7-10-21.6-5.2-5.2-12.3-9.7-21.8-13.6-4.6-1.9-9.9.3-11.8,4.9-1.9,4.6.3,9.9,4.9,11.8,7.5,3.1,12.6,6.4,15.9,9.7s4.7,6.6,4.8,9.7c.6,13.2-20.7,24.4-20.7,24.4v-41.6c0-5-4-9-9-9s-9,4-9,9h0Z"/>
            </g>
            <g>
              <path class="cls-1" d="M1193.9,1506.9c-12.3,21.6-31.3,40.1-60,58.1-23.6,14.6-47.1,24.7-65.1,31.8-2.5,1.2-5.2,2.6-7.9,4.2-11.1,6.6-25.5,17.9-30.9,33.9,0,0,0,.1,0,.4,0,1,.5,4.4,5.8,11.7,5.2,7.2,12.7,15,19.9,22.7,9.1,9.5,16.9,17.8,20.5,24.8l.2.4c4.7,10.4,4.5,21-.7,29-4.8,7.4-13.2,11.8-22.5,11.8s-17.8-3.9-25.2-11c-21.4-20.8-61.3-59.6-53.7-107.2,1.9-12.1,6.9-22.9,13.5-32.4,1.7-2.5,3.6-4.9,5.6-7.3,1.9-2.3,4-4.5,6.1-6.7,1.5,1.6,2.9,3.2,4.5,4.8,0,0,.2.2.2.2,0,0,.1.1.2.2.6.6,1,1.2.7,2,0,.1-.1.3-.2.5-.5.9-1.5,1.5-2.2,2.2h0c-1,1.1-1.9,2.3-2.9,3.4-1.9,2.3-3.7,4.8-5.4,7.2,9.6,8.4,22.1,13.2,35,13.2s9.1-.6,13.4-1.7c4.3-3.6,9-6.9,13.7-9.7,3-1.8,6-3.3,9-4.7,1-.4,2.1-.8,3.1-1.2,13.6-15,17.2-36.1,10.4-54.2-2.7,1.4-5.4,2.7-8.1,4-2.7,1.3-5.4,2.6-8.2,3.9-.9-2.8-2.2-5.6-3.8-8.1,2.7-1.3,5.5-2.5,8.2-3.9,2.7-1.3,5.4-2.6,8.1-4,9.1-4.6,18-9.7,26.2-15.2,14.6-9.7,25.2-19.1,32.4-28.8,13.9-18.3,11.8-35.9-7.3-58.8-5.2-6.1-11-12-17.5-17.4-2.7-2.3-5.4-4.4-8.2-6.5-2.3-1.7-4.7-3.4-7.1-4.9,0,0,0,0-.2,0-.6-.4-1.2-.8-1.8-1.3-12.5-9.6-17.3-24.5-12.7-39.4,4.6-14.9,17.5-25,31.9-25s12.1,1.7,17.9,5.1c.2.1.4.2.6.4,12.6,8.7,24,18.3,34.3,29,2.2,2.2,4.3,4.5,6.4,6.9,2,2.3,4,4.7,6,7.1.4.4.7.9,1.1,1.3,33.6,41.3,39.9,89.8,16.8,129.7Z"/>
              <path d="M1133.3,1416.3c-4.5-5.3-9.5-10.5-14.8-15.2-2.6-2.3-5.2-4.5-7.8-6.6-2.8-2.2-5.7-4.4-8.6-6.4-1.3.5-2.6,1-3.9,1.4-2.1.8-4.3,1.6-6.5,2.3.6.4,1.1.9,1.8,1.3,0,0,.1,0,.2,0,2.4,1.6,4.8,3.2,7.1,4.9-3.3,1.2-6.8,2.5-10.3,3.7,3,2,5.9,4.2,8.8,6.4,7.6,6,14.6,12.7,20.4,19.6,18.7,22.5,16.4,35.3,7.1,47.5,0,0,0,0,0,.1-6.6,8.8-16.5,17.6-30.2,26.7-8.3,5.6-17.3,10.6-26.5,15.2,2,2.4,3.8,4.8,5.2,7.4-2.7,1.4-5.4,2.7-8.1,4,1.6,2.6,2.8,5.3,3.8,8.1,2.7-1.3,5.4-2.7,8.1-4,9.5-4.9,18.8-10.1,27.4-15.8,12.9-8.6,25.6-18.7,34.7-30.9,18.8-24.7,10.9-47.8-7.6-70ZM1133.3,1416.3c-4.5-5.3-9.5-10.5-14.8-15.2-2.6-2.3-5.2-4.5-7.8-6.6-2.8-2.2-5.7-4.4-8.6-6.4-1.3.5-2.6,1-3.9,1.4-2.1.8-4.3,1.6-6.5,2.3.6.4,1.1.9,1.8,1.3,0,0,.1,0,.2,0,2.4,1.6,4.8,3.2,7.1,4.9-3.3,1.2-6.8,2.5-10.3,3.7,3,2,5.9,4.2,8.8,6.4,7.6,6,14.6,12.7,20.4,19.6,18.7,22.5,16.4,35.3,7.1,47.5,0,0,0,0,0,.1-6.6,8.8-16.5,17.6-30.2,26.7-8.3,5.6-17.3,10.6-26.5,15.2,2,2.4,3.8,4.8,5.2,7.4-2.7,1.4-5.4,2.7-8.1,4,1.6,2.6,2.8,5.3,3.8,8.1,2.7-1.3,5.4-2.7,8.1-4,9.5-4.9,18.8-10.1,27.4-15.8,12.9-8.6,25.6-18.7,34.7-30.9,18.8-24.7,10.9-47.8-7.6-70ZM1215,1437c-3.9-22.8-14.5-45.4-30.9-65.5,0,0,0,0,0,0-1.9-2.4-3.9-4.7-5.8-7-2-2.3-4.1-4.6-6.2-6.9-11.2-11.9-23.6-22.5-37.5-32.1-.4-.3-.8-.5-1.2-.8-7.2-4.2-14.8-6.3-22.4-6.3-18.4,0-34.7,12.6-40.5,31.3-5.2,16.6-.6,33.7,11.5,45.5,1.9,1.9,4.1,3.7,6.4,5.3.1,0,.2.1.3.2.6.4,1.1.8,1.7,1.1,3,2,5.9,4.2,8.8,6.4,7.6,6,14.6,12.7,20.4,19.6,18.7,22.5,16.4,35.3,7.1,47.5,0,0,0,0,0,.1-6.6,8.8-16.5,17.6-30.2,26.7-8.3,5.6-17.3,10.6-26.5,15.2-2.8,1.4-5.6,2.8-8.4,4.1-2.9,1.4-5.7,2.7-8.6,4,.6.7,1.2,1.3,1.8,1.9,1.6,1.6,2.9,3.4,4.1,5.2,1.6,2.6,2.9,5.3,3.8,8.1,2.7-1.3,5.5-2.5,8.2-3.9,2.7-1.3,5.4-2.7,8.1-4,9.5-4.9,18.8-10.1,27.4-15.8,12.9-8.6,25.6-18.7,34.7-30.9,18.8-24.7,10.9-47.8-7.6-70-4.5-5.3-9.5-10.5-14.8-15.2-2.6-2.3-5.2-4.5-7.8-6.6-2.8-2.2-5.7-4.4-8.6-6.4-1.1-.8-2.3-1.6-3.4-2.4-23.3-16.1-9.9-49.3,12.4-49.3s8.7,1.2,13.4,3.9c11.1,7.7,21.4,16.2,30.9,25.8,2.2,2.2,4.4,4.5,6.5,6.9,2.1,2.3,4.1,4.6,6.1,7,.8.9,1.5,1.9,2.3,2.8,27.5,33.9,39.5,78.9,16,119.6-13.6,23.9-35.1,41.2-57,55-13.8,8.7-28.5,16-43.4,22.6-13.7,6-27.4,12.5-39.9,20.4s-21.3,15.9-25.4,28.1c-5.7,17.2,39.7,54,47.8,70,7.4,16.4-2.2,28-15,28s-12.8-2.6-18.9-8.5c-22-21.4-57.8-57.2-51.1-99.4,1.6-9.8,5.5-18.9,11.1-27.2,1.6-2.5,3.5-4.9,5.4-7.2,1.9-2.3,3.9-4.5,6-6.7-.6-.6-1.2-1.2-1.8-1.8-1.5-1.6-3-3.2-4.4-4.8-2.1-2.2-4-4.5-6-6.7-2.2,2.2-4.2,4.4-6.1,6.7-2,2.4-3.9,4.8-5.7,7.2-8.7,12-14.1,24.6-16.2,37.7-3.6,22.8,2.2,46.4,17.4,70,12.4,19.2,29,35.4,38.9,45.1,9,8.8,20.2,13.6,31.4,13.6s23.7-5.9,30.1-15.9c6.9-10.6,7.3-24.3,1.4-37.6-.1-.2-.2-.5-.4-.7-4.1-8.2-12.4-16.9-22-26.9-5.8-6.1-11.8-12.4-16.5-18.3-4-5-6.8-11.2-7.5-12.7,2.9-6.9,8.5-12.1,14.6-16.2,12.7-8.5,26.4-13.7,40.2-19.8,15.7-6.9,31-14.7,45.6-23.8,0,0,0,0,0,0,29.9-18.8,49.9-38.3,63-61.3,13.1-22.7,17.7-48.3,13.3-74.3Z"/>
            </g>
            <path class="cls-1" d="M1321.6,929c-31.3-51.4-89.8-64.6-132.5-74.3-3.4-.8-6.7-1.5-10-2.3-32.7-7.6-66.8-11.5-101.5-11.5h0c-29.1,0-59.1,2.7-89.2,8.1-3.6.6-7.3,1.3-11,1.9-42.2,7.2-100,17-133.1,64.6-15.4,22.1-20.3,49-14.3,77.7,4.3,20.4,14.3,41.3,28.2,59.1,22.5,28.7,53.6,52.2,94.7,71.5-9.7,5.6-18.3,11.6-26.1,18-25.4,21-39.9,45.7-43.2,73.6-4.7,40.1,14.4,80.7,56.8,120.6,11.4,10.7,22.9,19.9,32.5,26.9-7.2,6.5-13.6,13.5-19.1,21-11.2,15.4-24,41.1-21.3,75.6,2.8,35.5,21.3,72.9,55,111.3,1.9,2.2,4,4.5,6,6.7,1.3,1.4,2.6,2.8,4,4.3.8.8,1.5,1.6,2.3,2.3,1.9-2.3,3.9-4.5,6-6.7-.6-.6-1.2-1.2-1.8-1.8-1.5-1.6-3-3.2-4.4-4.8-2.1-2.2-4-4.5-6-6.7.1-.1.2-.2.4-.4,15.2-15.2,33.1-25.9,45.4-32.2.3-.2.6-.3,1-.5,4.2-1.8,8.4-3.7,12.6-5.6.6.7,1.2,1.3,1.8,1.9,1.6,1.6,2.9,3.4,4.1,5.2,1.6,2.6,2.9,5.3,3.8,8.1,2.7-1.3,5.5-2.5,8.2-3.9-1-2.8-2.2-5.5-3.8-8.1-1.5-2.6-3.4-5-5.5-7.3,0,0-.1-.2-.2-.2-16.8-17.7-53.9-61.5-36.4-85.6,7.9-10.8,22.5-19.5,46.1-27.2,6.9-2.3,13.4-4.5,19.4-6.6,3.6-1.2,7-2.5,10.3-3.7.2,0,.4-.2.6-.2,3.1-1.2,6.2-2.3,9.3-3.5,17.1-6.5,34.4-13.5,51.1-21.5,2.8-1.4,5.6-2.7,8.4-4.2,2.8-1.4,5.5-2.8,8.2-4.3,11.7-6.3,22.9-13.3,33.5-21.1,60.9-44.9,69.2-96.7,65.5-132.2-2.4-23.1-11.3-43.8-26.2-61.6-9.8-11.6-22.2-21.9-37.2-30.8,47.1-25.5,103.9-65.8,118.1-117.4,6.9-25,3.4-50.1-10.3-72.4ZM1077.6,928.9c28,0,55.5,3.1,81.6,9.2,3.5.8,7,1.6,10.6,2.4,31.9,7.2,64.8,14.7,76.8,34.3,1,1.7,1,1.8.6,3.2-3.8,13.8-32.2,40.8-79.2,65.5-25,13.2-52,22.6-84.6,32.4-2-.5-3.9-1-5.8-1.6-59.7-16.4-119.2-37-150-76.3-10.6-13.6-13.6-28.4-10.9-32.2,12.1-17.4,42.6-22.6,72.2-27.6,4-.7,7.9-1.3,11.8-2,26-4.7,54.1-7.3,77.2-7.3ZM975.2,1240.9c-3.6-6.6-5.1-11.8-4.3-15.8.7-3.8,3.5-7.7,8.7-12.5,14.9-13.5,33.7-21.9,57.4-30.3,13.4-4.8,27.2-9.2,40.9-13.1,2.4-.7,5.1-1.5,7.3-1.6,0,0,.4,0,.5,0,2.5,0,5.3.7,8.1,1.4,9.6,2.4,19.4,5,29.1,7.8,16.4,4.6,32.2,9.4,46.2,17.8,8.7,5.2,14.5,10.7,17.6,16.8,4.4,8.5,4.4,19.9-.2,30.5-4,9.3-11.2,18.1-22,27-16.9,13.8-37.6,23.6-57.3,32.1-12.9,5.5-26,10.8-39.1,15.7-1.4.5-2.9,1.1-4.3,1.5-1.5.4-2.9.7-4.1.7-3.9,0-8-3-10.8-5.6-3.7-3.5-7.2-6.2-10.5-8.8-2.8-2.2-5.6-4.4-8.6-7.1-2.3-2-4.7-4.2-7.2-6.4-5-4.5-10.1-9.1-14.8-13-15.3-12.7-25.6-24.5-32.6-37.1Z"/>
            <path d="M1073.8,1417c9.2-3,17.6-5.9,25.4-8.7-2.8-2.3-5.8-4.4-8.8-6.4,3.6-1.2,7-2.5,10.3-3.7-2.3-1.7-4.7-3.4-7.1-4.9,0,0-.1,0-.2,0-.6-.4-1.2-.8-1.8-1.3-3.1,1.1-6.4,2.3-9.8,3.4-4.4,1.5-9,3.1-13.8,4.7-25.5,8.4-41.6,18.1-50.6,30.5-20.2,27.8,12.5,70.8,35.3,95.2.6.7,1.2,1.3,1.8,1.9,1.6,1.6,2.9,3.4,4.1,5.2,1.6,2.6,2.9,5.3,3.8,8.1,2.7-1.3,5.5-2.5,8.2-3.9-1-2.8-2.2-5.5-3.8-8.1,2.7-1.3,5.4-2.6,8.1-4-1.5-2.6-3.2-5.1-5.2-7.4-.7-.8-1.4-1.6-2.1-2.3-10-10.6-23.7-26.5-31.9-42.6-7.3-14.3-8.5-24.9-3.7-31.5,6.6-9.1,20.2-16.9,41.6-24ZM1194.8,1207.2c-4.6-8.7-12.5-15.3-21-20.3-14.9-8.9-31.7-14-48.4-18.7-9.7-2.7-19.5-5.3-29.3-7.8-3.4-.9-6.8-1.7-10.3-1.7s-.4,0-.6,0c0,0-.1,0-.2,0-3.2.1-6.4,1-9.6,1.9-13.9,4-27.7,8.5-41.3,13.3-21.7,7.7-43.5,16.6-60.5,32.1-5.2,4.8-10.2,10.5-11.5,17.4-1.4,7.5,1.5,15.2,5.2,21.9,8.6,15.5,21.1,28.4,34.7,39.7,6.8,5.7,15,13.2,21.8,19.2,7,6.1,12.6,9.7,19,15.7,4.7,4.3,10.4,7.9,16.8,8h.1c4,0,7.8-1.4,11.6-2.8,13.3-5,26.4-10.3,39.5-15.9,20.9-9,41.8-19,59.4-33.3,10.2-8.3,19.4-18.3,24.6-30.4,5.2-12.1,6-26.5-.1-38.2ZM979.8,1226.8c.1-.8,1-3,5.9-7.5,13.8-12.5,31.7-20.4,54.4-28.4,13.3-4.7,26.8-9.1,40.4-13,1.7-.5,4.1-1.2,5.2-1.2h.1c1.3,0,3.9.6,5.9,1.1,9.6,2.4,19.3,5,28.8,7.7,15.7,4.4,30.9,9,44,16.8,7.1,4.3,11.9,8.7,14.3,13.2,3.1,6,3,14.8-.5,22.7-3.4,8-9.8,15.7-19.5,23.5-16.1,13.1-36,22.5-55.2,30.8-12.7,5.5-25.7,10.7-38.7,15.6-1.4.5-4.1,1.6-5.2,1.7-.3,0-1.9-.6-4.8-3.2-4-3.7-7.6-6.5-11.1-9.2-2.8-2.2-5.4-4.2-8.2-6.7-2.2-2-4.6-4.1-7.1-6.3-5-4.5-10.3-9.2-15-13.2-14.4-12-24.1-23-30.4-34.6-3.6-6.5-3.5-9.1-3.3-9.8ZM1254.2,970.1c-13.9-22.8-48.8-30.7-82.4-38.4-3.6-.8-7.1-1.6-10.5-2.4-26.9-6.3-54.8-9.4-83.6-9.4s-53.2,2.9-78.8,7.4c-3.8.7-7.7,1.3-11.7,2-31.5,5.4-63.8,10.8-78,31.3-6.6,9.5.5,29.3,11.2,42.9,32.4,41.3,93.5,62.6,154.6,79.4,2.8.8,5.5,1.5,8.4,2.2,31.4-9.4,61.2-19.3,88.7-33.8,44.9-23.6,78.5-52.2,83.7-71.1,1.1-3.9.7-6.6-1.6-10.3ZM1217.1,1000.5c-14.1,12-32.6,24.1-53.5,35.1-23.8,12.5-49.5,21.6-80.6,31-1.1-.3-2.2-.6-3.3-.9-58.2-16-116.1-36-145.3-73.2-7.1-9.1-10.1-18.9-10-22.5,10.5-13.6,38.5-18.3,65.6-22.9,3.7-.6,7.9-1.3,11.8-2,25.5-4.6,53.1-7.2,75.6-7.2s54.1,3,79.5,8.9c3.5.8,7,1.6,10.6,2.4,27.6,6.2,58.6,13.3,69.8,28.3-1.7,3.4-6.6,11.1-20.5,22.8ZM1254.2,970.1c-13.9-22.8-48.8-30.7-82.4-38.4-3.6-.8-7.1-1.6-10.5-2.4-26.9-6.3-54.8-9.4-83.6-9.4s-53.2,2.9-78.8,7.4c-3.8.7-7.7,1.3-11.7,2-31.5,5.4-63.8,10.8-78,31.3-6.6,9.5.5,29.3,11.2,42.9,32.4,41.3,93.5,62.6,154.6,79.4,2.8.8,5.5,1.5,8.4,2.2,31.4-9.4,61.2-19.3,88.7-33.8,44.9-23.6,78.5-52.2,83.7-71.1,1.1-3.9.7-6.6-1.6-10.3ZM1217.1,1000.5c-14.1,12-32.6,24.1-53.5,35.1-23.8,12.5-49.5,21.6-80.6,31-1.1-.3-2.2-.6-3.3-.9-58.2-16-116.1-36-145.3-73.2-7.1-9.1-10.1-18.9-10-22.5,10.5-13.6,38.5-18.3,65.6-22.9,3.7-.6,7.9-1.3,11.8-2,25.5-4.6,53.1-7.2,75.6-7.2s54.1,3,79.5,8.9c3.5.8,7,1.6,10.6,2.4,27.6,6.2,58.6,13.3,69.8,28.3-1.7,3.4-6.6,11.1-20.5,22.8ZM1194.8,1207.2c-4.6-8.7-12.5-15.3-21-20.3-14.9-8.9-31.7-14-48.4-18.7-9.7-2.7-19.5-5.3-29.3-7.8-3.4-.9-6.8-1.7-10.3-1.7s-.4,0-.6,0c0,0-.1,0-.2,0-3.2.1-6.4,1-9.6,1.9-13.9,4-27.7,8.5-41.3,13.3-21.7,7.7-43.5,16.6-60.5,32.1-5.2,4.8-10.2,10.5-11.5,17.4-1.4,7.5,1.5,15.2,5.2,21.9,8.6,15.5,21.1,28.4,34.7,39.7,6.8,5.7,15,13.2,21.8,19.2,7,6.1,12.6,9.7,19,15.7,4.7,4.3,10.4,7.9,16.8,8h.1c4,0,7.8-1.4,11.6-2.8,13.3-5,26.4-10.3,39.5-15.9,20.9-9,41.8-19,59.4-33.3,10.2-8.3,19.4-18.3,24.6-30.4,5.2-12.1,6-26.5-.1-38.2ZM979.8,1226.8c.1-.8,1-3,5.9-7.5,13.8-12.5,31.7-20.4,54.4-28.4,13.3-4.7,26.8-9.1,40.4-13,1.7-.5,4.1-1.2,5.2-1.2h.1c1.3,0,3.9.6,5.9,1.1,9.6,2.4,19.3,5,28.8,7.7,15.7,4.4,30.9,9,44,16.8,7.1,4.3,11.9,8.7,14.3,13.2,3.1,6,3,14.8-.5,22.7-3.4,8-9.8,15.7-19.5,23.5-16.1,13.1-36,22.5-55.2,30.8-12.7,5.5-25.7,10.7-38.7,15.6-1.4.5-4.1,1.6-5.2,1.7-.3,0-1.9-.6-4.8-3.2-4-3.7-7.6-6.5-11.1-9.2-2.8-2.2-5.4-4.2-8.2-6.7-2.2-2-4.6-4.1-7.1-6.3-5-4.5-10.3-9.2-15-13.2-14.4-12-24.1-23-30.4-34.6-3.6-6.5-3.5-9.1-3.3-9.8ZM1194.8,1207.2c-4.6-8.7-12.5-15.3-21-20.3-14.9-8.9-31.7-14-48.4-18.7-9.7-2.7-19.5-5.3-29.3-7.8-3.4-.9-6.8-1.7-10.3-1.7s-.4,0-.6,0c0,0-.1,0-.2,0-3.2.1-6.4,1-9.6,1.9-13.9,4-27.7,8.5-41.3,13.3-21.7,7.7-43.5,16.6-60.5,32.1-5.2,4.8-10.2,10.5-11.5,17.4-1.4,7.5,1.5,15.2,5.2,21.9,8.6,15.5,21.1,28.4,34.7,39.7,6.8,5.7,15,13.2,21.8,19.2,7,6.1,12.6,9.7,19,15.7,4.7,4.3,10.4,7.9,16.8,8h.1c4,0,7.8-1.4,11.6-2.8,13.3-5,26.4-10.3,39.5-15.9,20.9-9,41.8-19,59.4-33.3,10.2-8.3,19.4-18.3,24.6-30.4,5.2-12.1,6-26.5-.1-38.2ZM979.8,1226.8c.1-.8,1-3,5.9-7.5,13.8-12.5,31.7-20.4,54.4-28.4,13.3-4.7,26.8-9.1,40.4-13,1.7-.5,4.1-1.2,5.2-1.2h.1c1.3,0,3.9.6,5.9,1.1,9.6,2.4,19.3,5,28.8,7.7,15.7,4.4,30.9,9,44,16.8,7.1,4.3,11.9,8.7,14.3,13.2,3.1,6,3,14.8-.5,22.7-3.4,8-9.8,15.7-19.5,23.5-16.1,13.1-36,22.5-55.2,30.8-12.7,5.5-25.7,10.7-38.7,15.6-1.4.5-4.1,1.6-5.2,1.7-.3,0-1.9-.6-4.8-3.2-4-3.7-7.6-6.5-11.1-9.2-2.8-2.2-5.4-4.2-8.2-6.7-2.2-2-4.6-4.1-7.1-6.3-5-4.5-10.3-9.2-15-13.2-14.4-12-24.1-23-30.4-34.6-3.6-6.5-3.5-9.1-3.3-9.8ZM1254.2,970.1c-13.9-22.8-48.8-30.7-82.4-38.4-3.6-.8-7.1-1.6-10.5-2.4-26.9-6.3-54.8-9.4-83.6-9.4s-53.2,2.9-78.8,7.4c-3.8.7-7.7,1.3-11.7,2-31.5,5.4-63.8,10.8-78,31.3-6.6,9.5.5,29.3,11.2,42.9,32.4,41.3,93.5,62.6,154.6,79.4,2.8.8,5.5,1.5,8.4,2.2,31.4-9.4,61.2-19.3,88.7-33.8,44.9-23.6,78.5-52.2,83.7-71.1,1.1-3.9.7-6.6-1.6-10.3ZM1217.1,1000.5c-14.1,12-32.6,24.1-53.5,35.1-23.8,12.5-49.5,21.6-80.6,31-1.1-.3-2.2-.6-3.3-.9-58.2-16-116.1-36-145.3-73.2-7.1-9.1-10.1-18.9-10-22.5,10.5-13.6,38.5-18.3,65.6-22.9,3.7-.6,7.9-1.3,11.8-2,25.5-4.6,53.1-7.2,75.6-7.2s54.1,3,79.5,8.9c3.5.8,7,1.6,10.6,2.4,27.6,6.2,58.6,13.3,69.8,28.3-1.7,3.4-6.6,11.1-20.5,22.8ZM1254.2,970.1c-13.9-22.8-48.8-30.7-82.4-38.4-3.6-.8-7.1-1.6-10.5-2.4-26.9-6.3-54.8-9.4-83.6-9.4s-53.2,2.9-78.8,7.4c-3.8.7-7.7,1.3-11.7,2-31.5,5.4-63.8,10.8-78,31.3-6.6,9.5.5,29.3,11.2,42.9,32.4,41.3,93.5,62.6,154.6,79.4,2.8.8,5.5,1.5,8.4,2.2,31.4-9.4,61.2-19.3,88.7-33.8,44.9-23.6,78.5-52.2,83.7-71.1,1.1-3.9.7-6.6-1.6-10.3ZM1217.1,1000.5c-14.1,12-32.6,24.1-53.5,35.1-23.8,12.5-49.5,21.6-80.6,31-1.1-.3-2.2-.6-3.3-.9-58.2-16-116.1-36-145.3-73.2-7.1-9.1-10.1-18.9-10-22.5,10.5-13.6,38.5-18.3,65.6-22.9,3.7-.6,7.9-1.3,11.8-2,25.5-4.6,53.1-7.2,75.6-7.2s54.1,3,79.5,8.9c3.5.8,7,1.6,10.6,2.4,27.6,6.2,58.6,13.3,69.8,28.3-1.7,3.4-6.6,11.1-20.5,22.8ZM1194.8,1207.2c-4.6-8.7-12.5-15.3-21-20.3-14.9-8.9-31.7-14-48.4-18.7-9.7-2.7-19.5-5.3-29.3-7.8-3.4-.9-6.8-1.7-10.3-1.7s-.4,0-.6,0c0,0-.1,0-.2,0-3.2.1-6.4,1-9.6,1.9-13.9,4-27.7,8.5-41.3,13.3-21.7,7.7-43.5,16.6-60.5,32.1-5.2,4.8-10.2,10.5-11.5,17.4-1.4,7.5,1.5,15.2,5.2,21.9,8.6,15.5,21.1,28.4,34.7,39.7,6.8,5.7,15,13.2,21.8,19.2,7,6.1,12.6,9.7,19,15.7,4.7,4.3,10.4,7.9,16.8,8h.1c4,0,7.8-1.4,11.6-2.8,13.3-5,26.4-10.3,39.5-15.9,20.9-9,41.8-19,59.4-33.3,10.2-8.3,19.4-18.3,24.6-30.4,5.2-12.1,6-26.5-.1-38.2ZM979.8,1226.8c.1-.8,1-3,5.9-7.5,13.8-12.5,31.7-20.4,54.4-28.4,13.3-4.7,26.8-9.1,40.4-13,1.7-.5,4.1-1.2,5.2-1.2h.1c1.3,0,3.9.6,5.9,1.1,9.6,2.4,19.3,5,28.8,7.7,15.7,4.4,30.9,9,44,16.8,7.1,4.3,11.9,8.7,14.3,13.2,3.1,6,3,14.8-.5,22.7-3.4,8-9.8,15.7-19.5,23.5-16.1,13.1-36,22.5-55.2,30.8-12.7,5.5-25.7,10.7-38.7,15.6-1.4.5-4.1,1.6-5.2,1.7-.3,0-1.9-.6-4.8-3.2-4-3.7-7.6-6.5-11.1-9.2-2.8-2.2-5.4-4.2-8.2-6.7-2.2-2-4.6-4.1-7.1-6.3-5-4.5-10.3-9.2-15-13.2-14.4-12-24.1-23-30.4-34.6-3.6-6.5-3.5-9.1-3.3-9.8ZM1073.8,1417c9.2-3,17.6-5.9,25.4-8.7-2.8-2.3-5.8-4.4-8.8-6.4,3.6-1.2,7-2.5,10.3-3.7-2.3-1.7-4.7-3.4-7.1-4.9,0,0-.1,0-.2,0-.6-.4-1.2-.8-1.8-1.3-3.1,1.1-6.4,2.3-9.8,3.4-4.4,1.5-9,3.1-13.8,4.7-25.5,8.4-41.6,18.1-50.6,30.5-20.2,27.8,12.5,70.8,35.3,95.2.6.7,1.2,1.3,1.8,1.9,1.6,1.6,2.9,3.4,4.1,5.2,1.6,2.6,2.9,5.3,3.8,8.1,2.7-1.3,5.5-2.5,8.2-3.9-1-2.8-2.2-5.5-3.8-8.1,2.7-1.3,5.4-2.6,8.1-4-1.5-2.6-3.2-5.1-5.2-7.4-.7-.8-1.4-1.6-2.1-2.3-10-10.6-23.7-26.5-31.9-42.6-7.3-14.3-8.5-24.9-3.7-31.5,6.6-9.1,20.2-16.9,41.6-24ZM1194.8,1207.2c-4.6-8.7-12.5-15.3-21-20.3-14.9-8.9-31.7-14-48.4-18.7-9.7-2.7-19.5-5.3-29.3-7.8-3.4-.9-6.8-1.7-10.3-1.7s-.4,0-.6,0c0,0-.1,0-.2,0-3.2.1-6.4,1-9.6,1.9-13.9,4-27.7,8.5-41.3,13.3-21.7,7.7-43.5,16.6-60.5,32.1-5.2,4.8-10.2,10.5-11.5,17.4-1.4,7.5,1.5,15.2,5.2,21.9,8.6,15.5,21.1,28.4,34.7,39.7,6.8,5.7,15,13.2,21.8,19.2,7,6.1,12.6,9.7,19,15.7,4.7,4.3,10.4,7.9,16.8,8h.1c4,0,7.8-1.4,11.6-2.8,13.3-5,26.4-10.3,39.5-15.9,20.9-9,41.8-19,59.4-33.3,10.2-8.3,19.4-18.3,24.6-30.4,5.2-12.1,6-26.5-.1-38.2ZM979.8,1226.8c.1-.8,1-3,5.9-7.5,13.8-12.5,31.7-20.4,54.4-28.4,13.3-4.7,26.8-9.1,40.4-13,1.7-.5,4.1-1.2,5.2-1.2h.1c1.3,0,3.9.6,5.9,1.1,9.6,2.4,19.3,5,28.8,7.7,15.7,4.4,30.9,9,44,16.8,7.1,4.3,11.9,8.7,14.3,13.2,3.1,6,3,14.8-.5,22.7-3.4,8-9.8,15.7-19.5,23.5-16.1,13.1-36,22.5-55.2,30.8-12.7,5.5-25.7,10.7-38.7,15.6-1.4.5-4.1,1.6-5.2,1.7-.3,0-1.9-.6-4.8-3.2-4-3.7-7.6-6.5-11.1-9.2-2.8-2.2-5.4-4.2-8.2-6.7-2.2-2-4.6-4.1-7.1-6.3-5-4.5-10.3-9.2-15-13.2-14.4-12-24.1-23-30.4-34.6-3.6-6.5-3.5-9.1-3.3-9.8ZM1254.2,970.1c-13.9-22.8-48.8-30.7-82.4-38.4-3.6-.8-7.1-1.6-10.5-2.4-26.9-6.3-54.8-9.4-83.6-9.4s-53.2,2.9-78.8,7.4c-3.8.7-7.7,1.3-11.7,2-31.5,5.4-63.8,10.8-78,31.3-6.6,9.5.5,29.3,11.2,42.9,32.4,41.3,93.5,62.6,154.6,79.4,2.8.8,5.5,1.5,8.4,2.2,31.4-9.4,61.2-19.3,88.7-33.8,44.9-23.6,78.5-52.2,83.7-71.1,1.1-3.9.7-6.6-1.6-10.3ZM1217.1,1000.5c-14.1,12-32.6,24.1-53.5,35.1-23.8,12.5-49.5,21.6-80.6,31-1.1-.3-2.2-.6-3.3-.9-58.2-16-116.1-36-145.3-73.2-7.1-9.1-10.1-18.9-10-22.5,10.5-13.6,38.5-18.3,65.6-22.9,3.7-.6,7.9-1.3,11.8-2,25.5-4.6,53.1-7.2,75.6-7.2s54.1,3,79.5,8.9c3.5.8,7,1.6,10.6,2.4,27.6,6.2,58.6,13.3,69.8,28.3-1.7,3.4-6.6,11.1-20.5,22.8ZM1254.2,970.1c-13.9-22.8-48.8-30.7-82.4-38.4-3.6-.8-7.1-1.6-10.5-2.4-26.9-6.3-54.8-9.4-83.6-9.4s-53.2,2.9-78.8,7.4c-3.8.7-7.7,1.3-11.7,2-31.5,5.4-63.8,10.8-78,31.3-6.6,9.5.5,29.3,11.2,42.9,32.4,41.3,93.5,62.6,154.6,79.4,2.8.8,5.5,1.5,8.4,2.2,31.4-9.4,61.2-19.3,88.7-33.8,44.9-23.6,78.5-52.2,83.7-71.1,1.1-3.9.7-6.6-1.6-10.3ZM1217.1,1000.5c-14.1,12-32.6,24.1-53.5,35.1-23.8,12.5-49.5,21.6-80.6,31-1.1-.3-2.2-.6-3.3-.9-58.2-16-116.1-36-145.3-73.2-7.1-9.1-10.1-18.9-10-22.5,10.5-13.6,38.5-18.3,65.6-22.9,3.7-.6,7.9-1.3,11.8-2,25.5-4.6,53.1-7.2,75.6-7.2s54.1,3,79.5,8.9c3.5.8,7,1.6,10.6,2.4,27.6,6.2,58.6,13.3,69.8,28.3-1.7,3.4-6.6,11.1-20.5,22.8ZM1173.8,1186.8c-14.9-8.9-31.7-14-48.4-18.7-9.7-2.7-19.5-5.3-29.3-7.8-3.4-.9-6.8-1.7-10.3-1.7s-.4,0-.6,0c0,0-.1,0-.2,0-3.2.1-6.4,1-9.6,1.9-13.9,4-27.7,8.5-41.3,13.3-21.7,7.7-43.5,16.6-60.5,32.1-5.2,4.8-10.2,10.5-11.5,17.4-1.4,7.5,1.5,15.2,5.2,21.9,8.6,15.5,21.1,28.4,34.7,39.7,6.8,5.7,15,13.2,21.8,19.2,7,6.1,12.6,9.7,19,15.7,4.7,4.3,10.4,7.9,16.8,8h.1c4,0,7.8-1.4,11.6-2.8,13.3-5,26.4-10.3,39.5-15.9,20.9-9,41.8-19,59.4-33.3,10.2-8.3,19.4-18.3,24.6-30.4,5.2-12.1,6-26.5-.1-38.2-4.6-8.7-12.5-15.3-21-20.3ZM979.8,1226.8c.1-.8,1-3,5.9-7.5,13.8-12.5,31.7-20.4,54.4-28.4,13.3-4.7,26.8-9.1,40.4-13,1.7-.5,4.1-1.2,5.2-1.2h.1c1.3,0,3.9.6,5.9,1.1,9.6,2.4,19.3,5,28.8,7.7,15.7,4.4,30.9,9,44,16.8,7.1,4.3,11.9,8.7,14.3,13.2,3.1,6,3,14.8-.5,22.7-3.4,8-9.8,15.7-19.5,23.5-16.1,13.1-36,22.5-55.2,30.8-12.7,5.5-25.7,10.7-38.7,15.6-1.4.5-4.1,1.6-5.2,1.7-.3,0-1.9-.6-4.8-3.2-4-3.7-7.6-6.5-11.1-9.2-2.8-2.2-5.4-4.2-8.2-6.7-2.2-2-4.6-4.1-7.1-6.3-5-4.5-10.3-9.2-15-13.2-14.4-12-24.1-23-30.4-34.6-3.6-6.5-3.5-9.1-3.3-9.8ZM1093.6,1393.2c0,0-.1,0-.2,0-.6-.4-1.2-.8-1.8-1.3-3.1,1.1-6.4,2.3-9.8,3.4-4.4,1.5-9,3.1-13.8,4.7-25.5,8.4-41.6,18.1-50.6,30.5-20.2,27.8,12.5,70.8,35.3,95.2.6.7,1.2,1.3,1.8,1.9,1.6,1.6,2.9,3.4,4.1,5.2,1.6,2.6,2.9,5.3,3.8,8.1,2.7-1.3,5.5-2.5,8.2-3.9-1-2.8-2.2-5.5-3.8-8.1,2.7-1.3,5.4-2.6,8.1-4-1.5-2.6-3.2-5.1-5.2-7.4-.7-.8-1.4-1.6-2.1-2.3-10-10.6-23.7-26.5-31.9-42.6-7.3-14.3-8.5-24.9-3.7-31.5,6.6-9.1,20.2-16.9,41.6-24,9.2-3,17.6-5.9,25.4-8.7-2.8-2.3-5.8-4.4-8.8-6.4,3.6-1.2,7-2.5,10.3-3.7-2.3-1.7-4.7-3.4-7.1-4.9ZM1329.3,924.3c-15-24.5-36.8-43-66.9-56.7-24.5-11.1-50.4-17-71.2-21.7-3.5-.8-6.7-1.5-9.9-2.3-33.3-7.8-68.2-11.7-103.6-11.7s-60.2,2.8-90.8,8.2c-3.5.6-7.1,1.2-10.9,1.9h0c-20.6,3.5-46.1,7.9-70.7,17.3-30.1,11.6-52.5,28.3-68.3,51.1-16.8,24.2-22.3,53.5-15.7,84.7,4.6,21.7,15.2,44,29.9,62.8,20.6,26.3,48.1,48.4,83.4,66.9-4.8,3.3-9.2,6.6-13.5,10.2-27.2,22.5-42.9,49.2-46.5,79.5-5.1,43.1,14.9,86.2,59.5,128.2,8.5,8,17,15.1,24.8,21.2-4.6,4.7-8.8,9.7-12.6,14.9-12.1,16.7-25.9,44.4-23,81.7,3,37.8,22.6,77.4,58.3,117.7,2,2.3,4,4.5,6.1,6.8,1,1.1,2,2.1,3,3.2,1.1,1.2,2.3,2.3,3.5,3.4,1.6-2.5,3.5-4.9,5.4-7.2,1.9-2.3,3.9-4.5,6-6.7-.6-.6-1.2-1.2-1.8-1.8-1.5-1.6-3-3.2-4.4-4.8-2.1-2.2-4-4.5-6-6.7-75.5-86.5-53.3-146.4-32.6-175,7.8-10.7,17-19.5,26.6-26.8-10.6-7.3-26-18.7-41.1-32.9-40.2-37.8-58.4-75.9-54-113,3-25.5,16.5-48.3,40-67.7,11.3-9.3,24.9-17.9,40.9-25.7-42.3-17.6-80.6-41.1-108.2-76.3-13.1-16.7-22.4-36.3-26.4-55.4-5.5-26.3-1.1-50.7,12.8-70.7,31-44.6,86.6-54,127.2-60.9,3.8-.6,7.5-1.3,11.1-1.9,29.7-5.3,58.9-7.9,87.6-7.9h0c34.1,0,67.4,3.8,99.5,11.2,3.3.8,6.6,1.5,10.1,2.3,41.1,9.3,97.4,22.1,126.8,70.2,12.3,20.2,15.5,42.8,9.3,65.4-13.9,50.2-72.1,90-118.6,114.4-3.4,1.8-6.8,3.5-10.2,5.2,2,.9,3.9,1.9,5.8,2.9,18.1,9.4,32.9,20.8,43.8,33.8,13.8,16.4,21.9,35.5,24.2,56.8,3.5,33.2-4.4,81.6-61.9,124-10.8,7.9-22.3,15-34.3,21.4-2.8,1.5-5.5,2.9-8.3,4.3-2.8,1.4-5.7,2.8-8.5,4.2-17.4,8.2-35.4,15.4-53.2,22-1.3.5-2.6,1-3.9,1.4-2.1.8-4.3,1.6-6.5,2.3-3.1,1.1-6.4,2.3-9.8,3.4-4.4,1.5-9,3.1-13.8,4.7-25.5,8.4-41.6,18.1-50.6,30.5-20.2,27.8,12.5,70.8,35.3,95.2.6.7,1.2,1.3,1.8,1.9,1.6,1.6,2.9,3.4,4.1,5.2,1.6,2.6,2.9,5.3,3.8,8.1,2.7-1.3,5.5-2.5,8.2-3.9,2.7-1.3,5.4-2.7,8.1-4-1-2.8-2.3-5.5-3.8-8.1-1.5-2.6-3.2-5.1-5.2-7.4-.7-.8-1.4-1.6-2.1-2.3-10-10.6-23.7-26.5-31.9-42.6-7.3-14.3-8.5-24.9-3.7-31.5,6.6-9.1,20.2-16.9,41.6-24,9.2-3,17.6-5.9,25.4-8.7,1.8-.7,3.6-1.3,5.3-1.9l4.5-1.7c3.2-1.2,6.4-2.4,9.5-3.6,16.5-6.3,33.2-13.2,49.4-21.1,2.8-1.3,5.5-2.7,8.2-4.1,2.7-1.4,5.4-2.8,8.1-4.3,11.4-6.3,22.5-13.2,32.9-20.9,28.6-21,48.7-45.7,59.8-73.2,8.6-21.3,11.7-43.9,9.3-67.2-2.6-24.9-12.1-47.2-28.3-66.4-7.5-8.9-16.4-17.1-26.7-24.4,21.9-12.7,41-26.1,56.8-39.9,27.7-24.2,45.4-49.6,52.6-75.7,7.6-27.5,3.7-55-11.3-79.5ZM1083.4,1085.3c31.4-9.4,61.2-19.3,88.7-33.8,44.9-23.6,78.5-52.2,83.7-71.1,1.1-3.9.7-6.6-1.6-10.3-13.9-22.8-48.8-30.7-82.4-38.4-3.6-.8-7.1-1.6-10.5-2.4-26.9-6.3-54.8-9.4-83.6-9.4s-53.2,2.9-78.8,7.4c-3.8.7-7.7,1.3-11.7,2-31.5,5.4-63.8,10.8-78,31.3-6.6,9.5.5,29.3,11.2,42.9,32.4,41.3,93.5,62.6,154.6,79.4,2.8.8,5.5,1.5,8.4,2.2ZM990.2,947.2c3.7-.6,7.9-1.3,11.8-2,25.5-4.6,53.1-7.2,75.6-7.2s54.1,3,79.5,8.9c3.5.8,7,1.6,10.6,2.4,27.6,6.2,58.6,13.3,69.8,28.3-1.7,3.4-6.6,11.1-20.5,22.8-14.1,12-32.6,24.1-53.5,35.1-23.8,12.5-49.5,21.6-80.6,31-1.1-.3-2.2-.6-3.3-.9-58.2-16-116.1-36-145.3-73.2-7.1-9.1-10.1-18.9-10-22.5,10.5-13.6,38.5-18.3,65.6-22.9ZM962.1,1223.4c-1.4,7.5,1.5,15.2,5.2,21.9,8.6,15.5,21.1,28.4,34.7,39.7,6.8,5.7,15,13.2,21.8,19.2,7,6.1,12.6,9.7,19,15.7,4.7,4.3,10.4,7.9,16.8,8h.1c4,0,7.8-1.4,11.6-2.8,13.3-5,26.4-10.3,39.5-15.9,20.9-9,41.8-19,59.4-33.3,10.2-8.3,19.4-18.3,24.6-30.4,5.2-12.1,6-26.5-.1-38.2-4.6-8.7-12.5-15.3-21-20.3-14.9-8.9-31.7-14-48.4-18.7-9.7-2.7-19.5-5.3-29.3-7.8-3.4-.9-6.8-1.7-10.3-1.7s-.4,0-.6,0c0,0-.1,0-.2,0-3.2.1-6.4,1-9.6,1.9-13.9,4-27.7,8.5-41.3,13.3-21.7,7.7-43.5,16.6-60.5,32.1-5.2,4.8-10.2,10.5-11.5,17.4ZM979.8,1226.8c.1-.8,1-3,5.9-7.5,13.8-12.5,31.7-20.4,54.4-28.4,13.3-4.7,26.8-9.1,40.4-13,1.7-.5,4.1-1.2,5.2-1.2h.1c1.3,0,3.9.6,5.9,1.1,9.6,2.4,19.3,5,28.8,7.7,15.7,4.4,30.9,9,44,16.8,7.1,4.3,11.9,8.7,14.3,13.2,3.1,6,3,14.8-.5,22.7-3.4,8-9.8,15.7-19.5,23.5-16.1,13.1-36,22.5-55.2,30.8-12.7,5.5-25.7,10.7-38.7,15.6-1.4.5-4.1,1.6-5.2,1.7-.3,0-1.9-.6-4.8-3.2-4-3.7-7.6-6.5-11.1-9.2-2.8-2.2-5.4-4.2-8.2-6.7-2.2-2-4.6-4.1-7.1-6.3-5-4.5-10.3-9.2-15-13.2-14.4-12-24.1-23-30.4-34.6-3.6-6.5-3.5-9.1-3.3-9.8ZM1056.7,1593.7c-5,2.4-9.7,5.5-14.1,9.2,8.6-2.2,16.5-6.6,23.1-12.8,1-.9,1.9-1.9,2.8-2.8-1,.4-2.1.8-3.1,1.2-3.1,1.4-3.9,3-8.7,5.3ZM1073.8,1417c9.2-3,17.6-5.9,25.4-8.7-2.8-2.3-5.8-4.4-8.8-6.4,3.6-1.2,7-2.5,10.3-3.7-2.3-1.7-4.7-3.4-7.1-4.9,0,0-.1,0-.2,0-.6-.4-1.2-.8-1.8-1.3-3.1,1.1-6.4,2.3-9.8,3.4-4.4,1.5-9,3.1-13.8,4.7-25.5,8.4-41.6,18.1-50.6,30.5-20.2,27.8,12.5,70.8,35.3,95.2.6.7,1.2,1.3,1.8,1.9,1.6,1.6,2.9,3.4,4.1,5.2,1.6,2.6,2.9,5.3,3.8,8.1,2.7-1.3,5.5-2.5,8.2-3.9-1-2.8-2.2-5.5-3.8-8.1,2.7-1.3,5.4-2.6,8.1-4-1.5-2.6-3.2-5.1-5.2-7.4-.7-.8-1.4-1.6-2.1-2.3-10-10.6-23.7-26.5-31.9-42.6-7.3-14.3-8.5-24.9-3.7-31.5,6.6-9.1,20.2-16.9,41.6-24ZM1194.8,1207.2c-4.6-8.7-12.5-15.3-21-20.3-14.9-8.9-31.7-14-48.4-18.7-9.7-2.7-19.5-5.3-29.3-7.8-3.4-.9-6.8-1.7-10.3-1.7s-.4,0-.6,0c0,0-.1,0-.2,0-3.2.1-6.4,1-9.6,1.9-13.9,4-27.7,8.5-41.3,13.3-21.7,7.7-43.5,16.6-60.5,32.1-5.2,4.8-10.2,10.5-11.5,17.4-1.4,7.5,1.5,15.2,5.2,21.9,8.6,15.5,21.1,28.4,34.7,39.7,6.8,5.7,15,13.2,21.8,19.2,7,6.1,12.6,9.7,19,15.7,4.7,4.3,10.4,7.9,16.8,8h.1c4,0,7.8-1.4,11.6-2.8,13.3-5,26.4-10.3,39.5-15.9,20.9-9,41.8-19,59.4-33.3,10.2-8.3,19.4-18.3,24.6-30.4,5.2-12.1,6-26.5-.1-38.2ZM979.8,1226.8c.1-.8,1-3,5.9-7.5,13.8-12.5,31.7-20.4,54.4-28.4,13.3-4.7,26.8-9.1,40.4-13,1.7-.5,4.1-1.2,5.2-1.2h.1c1.3,0,3.9.6,5.9,1.1,9.6,2.4,19.3,5,28.8,7.7,15.7,4.4,30.9,9,44,16.8,7.1,4.3,11.9,8.7,14.3,13.2,3.1,6,3,14.8-.5,22.7-3.4,8-9.8,15.7-19.5,23.5-16.1,13.1-36,22.5-55.2,30.8-12.7,5.5-25.7,10.7-38.7,15.6-1.4.5-4.1,1.6-5.2,1.7-.3,0-1.9-.6-4.8-3.2-4-3.7-7.6-6.5-11.1-9.2-2.8-2.2-5.4-4.2-8.2-6.7-2.2-2-4.6-4.1-7.1-6.3-5-4.5-10.3-9.2-15-13.2-14.4-12-24.1-23-30.4-34.6-3.6-6.5-3.5-9.1-3.3-9.8ZM1254.2,970.1c-13.9-22.8-48.8-30.7-82.4-38.4-3.6-.8-7.1-1.6-10.5-2.4-26.9-6.3-54.8-9.4-83.6-9.4s-53.2,2.9-78.8,7.4c-3.8.7-7.7,1.3-11.7,2-31.5,5.4-63.8,10.8-78,31.3-6.6,9.5.5,29.3,11.2,42.9,32.4,41.3,93.5,62.6,154.6,79.4,2.8.8,5.5,1.5,8.4,2.2,31.4-9.4,61.2-19.3,88.7-33.8,44.9-23.6,78.5-52.2,83.7-71.1,1.1-3.9.7-6.6-1.6-10.3ZM1217.1,1000.5c-14.1,12-32.6,24.1-53.5,35.1-23.8,12.5-49.5,21.6-80.6,31-1.1-.3-2.2-.6-3.3-.9-58.2-16-116.1-36-145.3-73.2-7.1-9.1-10.1-18.9-10-22.5,10.5-13.6,38.5-18.3,65.6-22.9,3.7-.6,7.9-1.3,11.8-2,25.5-4.6,53.1-7.2,75.6-7.2s54.1,3,79.5,8.9c3.5.8,7,1.6,10.6,2.4,27.6,6.2,58.6,13.3,69.8,28.3-1.7,3.4-6.6,11.1-20.5,22.8ZM1254.2,970.1c-13.9-22.8-48.8-30.7-82.4-38.4-3.6-.8-7.1-1.6-10.5-2.4-26.9-6.3-54.8-9.4-83.6-9.4s-53.2,2.9-78.8,7.4c-3.8.7-7.7,1.3-11.7,2-31.5,5.4-63.8,10.8-78,31.3-6.6,9.5.5,29.3,11.2,42.9,32.4,41.3,93.5,62.6,154.6,79.4,2.8.8,5.5,1.5,8.4,2.2,31.4-9.4,61.2-19.3,88.7-33.8,44.9-23.6,78.5-52.2,83.7-71.1,1.1-3.9.7-6.6-1.6-10.3ZM1217.1,1000.5c-14.1,12-32.6,24.1-53.5,35.1-23.8,12.5-49.5,21.6-80.6,31-1.1-.3-2.2-.6-3.3-.9-58.2-16-116.1-36-145.3-73.2-7.1-9.1-10.1-18.9-10-22.5,10.5-13.6,38.5-18.3,65.6-22.9,3.7-.6,7.9-1.3,11.8-2,25.5-4.6,53.1-7.2,75.6-7.2s54.1,3,79.5,8.9c3.5.8,7,1.6,10.6,2.4,27.6,6.2,58.6,13.3,69.8,28.3-1.7,3.4-6.6,11.1-20.5,22.8ZM1194.8,1207.2c-4.6-8.7-12.5-15.3-21-20.3-14.9-8.9-31.7-14-48.4-18.7-9.7-2.7-19.5-5.3-29.3-7.8-3.4-.9-6.8-1.7-10.3-1.7s-.4,0-.6,0c0,0-.1,0-.2,0-3.2.1-6.4,1-9.6,1.9-13.9,4-27.7,8.5-41.3,13.3-21.7,7.7-43.5,16.6-60.5,32.1-5.2,4.8-10.2,10.5-11.5,17.4-1.4,7.5,1.5,15.2,5.2,21.9,8.6,15.5,21.1,28.4,34.7,39.7,6.8,5.7,15,13.2,21.8,19.2,7,6.1,12.6,9.7,19,15.7,4.7,4.3,10.4,7.9,16.8,8h.1c4,0,7.8-1.4,11.6-2.8,13.3-5,26.4-10.3,39.5-15.9,20.9-9,41.8-19,59.4-33.3,10.2-8.3,19.4-18.3,24.6-30.4,5.2-12.1,6-26.5-.1-38.2ZM979.8,1226.8c.1-.8,1-3,5.9-7.5,13.8-12.5,31.7-20.4,54.4-28.4,13.3-4.7,26.8-9.1,40.4-13,1.7-.5,4.1-1.2,5.2-1.2h.1c1.3,0,3.9.6,5.9,1.1,9.6,2.4,19.3,5,28.8,7.7,15.7,4.4,30.9,9,44,16.8,7.1,4.3,11.9,8.7,14.3,13.2,3.1,6,3,14.8-.5,22.7-3.4,8-9.8,15.7-19.5,23.5-16.1,13.1-36,22.5-55.2,30.8-12.7,5.5-25.7,10.7-38.7,15.6-1.4.5-4.1,1.6-5.2,1.7-.3,0-1.9-.6-4.8-3.2-4-3.7-7.6-6.5-11.1-9.2-2.8-2.2-5.4-4.2-8.2-6.7-2.2-2-4.6-4.1-7.1-6.3-5-4.5-10.3-9.2-15-13.2-14.4-12-24.1-23-30.4-34.6-3.6-6.5-3.5-9.1-3.3-9.8Z"/>
            <path class="cls-1" d="M1069.9,1587.2c-1,.4.2,0-.9.5-3.1,1.4-9.7,3.7-12.7,5.5-4.7,2.8-9.4,6-13.7,9.7-4.3,1.1-8.8,1.7-13.4,1.7-12.9,0-25.4-4.8-35-13.2,1.6-2.5,3.5-4.9,5.4-7.2,8.1,7.3,18.7,11.4,29.6,11.4s22.1-4.3,30.3-12.1c12.9-12.3,16.8-30.7,11.2-46.5,2.7-1.3,5.4-2.7,8.1-4,6.8,18.2,4.7,39.2-9,54.2Z"/>
            <path class="cls-1" d="M1005,1578.2c0,.1-.1.3-.2.5-.5.9-1.5,1.5-2.2,2.2.8-.9,1.6-1.8,2.4-2.6Z"/>
            <path class="cls-1" d="M994.3,1591.4c1.6-2.5,3.5-4.9,5.4-7.2.9-1.1,1.9-2.2,2.9-3.4h0c.7-.7,1.7-1.3,2.2-2.2,0-.2.2-.3.2-.5.2-.2.4-.5.7-.7-.5-.4-.9-.9-1.4-1.3,0,0-.1-.1-.2-.2,0,0-.2-.2-.2-.2-1.5-1.6-3-3.2-4.5-4.8-2-2.2-4-4.5-6-6.7.1-.1.2-.2.4-.4,15.2-15.2,33.1-25.9,45.4-32.2.3-.2.6-.3,1-.4,4.2-1.8,8.4-3.7,12.6-5.6.6.7,1.2,1.3,1.8,1.9,1.6,1.6,2.9,3.4,4.1,5.2,1.7,2.6,2.9,5.3,3.8,8.1,2.7-1.3,5.5-2.5,8.2-3.9,2.7-1.3,5.4-2.6,8.1-4"/>
            <g>
              <g>
                <path class="cls-1" d="M1080.5,1310.6c-.3,0-.7,0-1,0-15-.6-27-12.9-27.2-28.2l-8.8-633.3c-.3-24.6,19.1-44.9,43.4-45.2.2,0,.5,0,.7,0,11.9,0,23,4.8,31.4,13.5,8.4,8.7,13,20.7,12.5,32.8l-22.6,632.9c-.6,15.5-13,27.6-28.2,27.6Z"/>
                <path d="M1087.5,612.9c19.7,0,35.6,16.8,34.9,36.9l-22.6,632.9c-.4,10.6-8.9,18.9-19.2,18.9s-.5,0-.7,0c-10.3-.4-18.4-9-18.6-19.3l-8.8-633.3c-.3-19.7,15.2-35.8,34.5-36.1.2,0,.4,0,.6,0M1087.5,594.9h0c-.3,0-.6,0-.9,0-29.2.4-52.6,24.8-52.2,54.4l9.6,648.1c.3,20.1,15.3,21.5,35.2,22.2.5,0,.9,0,1.4,0,8-6.1,17.6-6.1,25.9-10.6,6.9-6.8,10.9-15.9,11.3-25.6l22.6-632.9c.6-14.5-4.9-28.8-15-39.3-10.1-10.5-23.5-16.2-37.9-16.2h0Z"/>
              </g>
              <g>
                <path class="cls-1" d="M1083.9,1508.7c-15.7,0-27.5-13.1-27.5-30.5l-.7-26.5c0-.1,0-.2,0-.4.3-21.2,17.3-42.1,34.4-42.1s15.2,4,18.8,11.4c2.3,4.7,3.3,10.6,3.3,19.1,0,0,.7,38.4.7,38.4,0,16.8-13,30.5-29,30.5Z"/>
                <path d="M1090.1,1418.3c11,0,13.1,9.6,13.1,21.5l.7,38.4c0,11.9-9,21.5-20,21.5s-18.5-9.8-18.5-21.7l-.7-26.6c.2-17.5,14.4-33.2,25.4-33.2M1090.1,1400.3c-22,0-43.1,24.8-43.4,50.9,0,.2,0,.5,0,.7l.7,26.4c0,10,3.3,19.4,9.3,26.5,6.9,8.3,16.6,12.9,27.3,12.9,21,0,38-17.7,38-39.5s0-.2,0-.3l-.7-38.2c0-6.7-.5-15.3-4.3-23-5.1-10.4-14.9-16.4-26.9-16.4h0Z"/>
              </g>
              <g>
                <path class="cls-1" d="M1083.9,1841.8c-16,0-29-13.4-29-29.8v-187c0-16.4,13-29.8,29-29.8s29,13.4,29,29.8v187c0,16.4-13,29.8-29,29.8Z"/>
                <path d="M1083.9,1604.2c11,0,20,9.3,20,20.8v187c0,11.5-9,20.8-20,20.8s-20-9.3-20-20.8v-187c0-11.5,9-20.8,20-20.8M1083.9,1586.2c-21,0-38,17.4-38,38.8v187c0,21.4,17,38.8,38,38.8s38-17.4,38-38.8v-187c0-21.4-17-38.8-38-38.8h0Z"/>
              </g>
            </g>
            <line class="cls-2" x1="972.7" y1="1363" x2="1063.9" y2="1318.1"/>
            <polygon points="1001.8 1580 992 1564.9 1062.1 1519.6 1084.4 1529.8 1001.8 1580"/>
            <path d="M997.8,1586.6s5.4-7.5,12.8-12.3l-15.2,1.7,2.4,10.5Z"/>
            <path d="M1039.3,1604.6s18.3-13.3,35.1-19.5c0,0-24.4,21.9-35.1,19.5Z"/>
            <g>
              <path class="cls-1" d="M1165.8,371.9h-175.8c-88.5,0-160.5,72-160.5,160.5s72,160.5,160.5,160.5h175.8c88.5,0,160.5-72,160.5-160.5s-72-160.5-160.5-160.5ZM1165.8,604.8h-175.8c-40,0-72.5-32.5-72.5-72.5s32.5-72.5,72.5-72.5h175.8c40,0,72.5,32.5,72.5,72.5s-32.5,72.5-72.5,72.5Z"/>
              <path d="M1165.8,362.9h-175.8c-93.4,0-169.5,76-169.5,169.5s76,169.5,169.5,169.5h175.8c93.4,0,169.5-76,169.5-169.5s-76-169.5-169.5-169.5ZM1165.8,683.8h-175.8c-83.5,0-151.5-68-151.5-151.5s67.9-151.5,151.5-151.5h175.8c83.5,0,151.5,68,151.5,151.5s-67.9,151.5-151.5,151.5ZM1165.8,450.9h-175.8c-44.9,0-81.5,36.5-81.5,81.5s36.5,81.5,81.5,81.5h175.8c44.9,0,81.5-36.5,81.5-81.5s-36.6-81.5-81.5-81.5ZM1165.8,595.8h-175.8c-35,0-63.5-28.5-63.5-63.5s28.5-63.5,63.5-63.5h175.8c35,0,63.5,28.5,63.5,63.5s-28.5,63.5-63.5,63.5ZM1165.8,450.9h-175.8c-44.9,0-81.5,36.5-81.5,81.5s36.5,81.5,81.5,81.5h175.8c44.9,0,81.5-36.5,81.5-81.5s-36.6-81.5-81.5-81.5ZM1165.8,595.8h-175.8c-35,0-63.5-28.5-63.5-63.5s28.5-63.5,63.5-63.5h175.8c35,0,63.5,28.5,63.5,63.5s-28.5,63.5-63.5,63.5ZM1165.8,450.9h-175.8c-44.9,0-81.5,36.5-81.5,81.5s36.5,81.5,81.5,81.5h175.8c44.9,0,81.5-36.5,81.5-81.5s-36.6-81.5-81.5-81.5ZM1165.8,595.8h-175.8c-35,0-63.5-28.5-63.5-63.5s28.5-63.5,63.5-63.5h175.8c35,0,63.5,28.5,63.5,63.5s-28.5,63.5-63.5,63.5Z"/>
              <path class="cls-4" d="M1063.5,468.9v126.9h-73.4c-35,0-63.5-28.5-63.5-63.5s28.5-63.5,63.5-63.5h73.4Z"/>
            </g>
          </g>
          <path class="cls-4" d="M1045.8,1621.8s-4.8,4.7-7.6,10.6c0,0,3.6,8,7.5,12.7v-23.3Z"/>
        </g>
        <path class="cls-1" d="M990.5,1597.7s6.6-10.6,9.2-13.5l4.7-5s3.3-2.8,7.5-5.4l18.3-11.1,14.7-8.9,12.7-7.8,16.7-10.2,11.7-6.7,16.5-9.7,2.9,51.1s-32.8,15.6-36.4,16.6c0,0-25,12.4-30.7,18.3,0,0-62.8,29.7-48-7.8Z"/>
      </g>
    </g>
  </g>
</svg>