<svg width="231" height="41" viewBox="0 0 231 41" fill="none" xmlns="http://www.w3.org/2000/svg">
<mask id="mask0_95_4269" style="mask-type:luminance" maskUnits="userSpaceOnUse" x="0" y="0" width="36" height="41">
<path d="M8.17833 8.73279C9.37346 7.52956 10.8044 6.55834 12.3908 5.89468C12.3908 5.89468 16.839 2.93786 25.9552 2.78139C23.4202 1.32995 20.4887 0.499023 17.3642 0.499023C12.5676 0.499023 8.22656 2.45765 5.086 5.6195C1.94543 8.78135 0 13.1518 0 17.9809C0 22.8101 1.94543 27.1805 5.086 30.3424C5.4022 30.6607 5.72912 30.9629 6.06675 31.2543C6.06675 31.2543 6.28113 31.4539 6.67772 31.7615C10.7186 34.8586 17.7876 35.1985 24.3099 35.3658C18.8863 36.4773 10.7133 36.6068 6.67772 33.4233C11.3993 47.247 25.5854 34.3622 35.3447 40.8531C33.3028 35.6733 30.9501 32.8568 28.3937 31.3514C26.7645 30.3964 25.0012 29.9485 23.1308 29.792C17.2463 29.3064 12.6909 31.7668 8.17833 27.2237C5.82558 24.855 4.37321 21.5852 4.37321 17.9756C4.37321 14.3659 5.82558 11.0961 8.17833 8.7274V8.73279Z" fill="white"/>
</mask>
<g mask="url(#mask0_95_4269)">
<rect x="-1.14032" y="-2.922" width="36.4904" height="44.4727" fill="#0A8FDC"/>
</g>
<mask id="mask1_95_4269" style="mask-type:luminance" maskUnits="userSpaceOnUse" x="12" y="2" width="23" height="29">
<path d="M17.3643 4.90746C20.9497 4.90746 24.1974 6.36968 26.5502 8.73837C28.9029 11.1071 30.3553 14.3768 30.3553 17.9865C30.3553 21.5962 28.9029 24.866 26.5502 27.2347C26.0196 27.7688 25.4461 28.2545 24.8352 28.6861C24.8888 28.6969 24.937 28.7023 24.9852 28.7131C26.7056 29.0368 28.1955 29.6573 29.4978 30.4937C29.546 30.4451 29.5996 30.3965 29.6478 30.348C32.7938 27.1861 34.7338 22.8156 34.7338 17.9865C34.7338 13.1574 32.7884 8.78693 29.6478 5.62508C28.5545 4.52436 27.3112 3.56933 25.9606 2.79236C16.8444 2.94883 12.3962 5.90565 12.3962 5.90565C13.9289 5.26357 15.6064 4.91285 17.3696 4.91285L17.3643 4.90746Z" fill="white"/>
</mask>
<g mask="url(#mask1_95_4269)">
<rect x="10.263" y="2.78003" width="28.5081" height="30.7888" fill="url(#paint0_linear_95_4269)"/>
</g>
<path fill-rule="evenodd" clip-rule="evenodd" d="M17.3427 8.06909C19.0255 8.06909 20.3975 9.45578 20.3975 11.15V14.5169H23.7417C25.4246 14.5169 26.7965 15.9036 26.7965 17.5978C26.7965 19.2921 25.4192 20.6787 23.7417 20.6787H20.3975V24.0456C20.3975 25.7399 19.0202 27.1212 17.3427 27.1212C15.6599 27.1212 14.2879 25.7345 14.2879 24.0456V20.6787H10.9437C9.26083 20.6787 7.88348 19.2921 7.88348 17.5978C7.88348 15.9036 9.26083 14.5169 10.9437 14.5169H14.2879V11.15C14.2879 9.45578 15.6652 8.06909 17.3427 8.06909Z" fill="#FFF200"/>
<mask id="mask2_95_4269" style="mask-type:luminance" maskUnits="userSpaceOnUse" x="7" y="8" width="20" height="20">
<path d="M17.3427 8.06909C19.0255 8.06909 20.3975 9.45578 20.3975 11.15V14.5169H23.7417C25.4246 14.5169 26.7965 15.9036 26.7965 17.5978C26.7965 19.2921 25.4192 20.6787 23.7417 20.6787H20.3975V24.0456C20.3975 25.7399 19.0202 27.1212 17.3427 27.1212C15.6599 27.1212 14.2879 25.7345 14.2879 24.0456V20.6787H10.9437C9.26083 20.6787 7.88348 19.2921 7.88348 17.5978C7.88348 15.9036 9.26083 14.5169 10.9437 14.5169H14.2879V11.15C14.2879 9.45578 15.6652 8.06909 17.3427 8.06909Z" fill="white"/>
</mask>
<g mask="url(#mask2_95_4269)">
<path d="M26.8021 22.2434L26.4162 22.648L12.0479 8.61393L12.5785 8.06897H26.8021V22.2434Z" fill="#FBA51A"/>
<path d="M12.0457 8.61337L11.971 8.6908L26.3337 22.728L26.4083 22.6506L12.0457 8.61337Z" fill="#FBA51A"/>
<path d="M11.9689 8.69583L11.8943 8.77332L26.2667 22.8004L26.3413 22.7229L11.9689 8.69583Z" fill="#FBA51A"/>
<path d="M11.8938 8.77105L11.8192 8.84851L26.1866 22.8807L26.2613 22.8032L11.8938 8.77105Z" fill="#FBA51A"/>
<path d="M11.8243 8.84894L11.7496 8.92639L26.1171 22.9585L26.1918 22.8811L11.8243 8.84894Z" fill="#FBA51A"/>
<path d="M11.7454 8.92889L11.6708 9.00635L26.0383 23.0385L26.1129 22.961L11.7454 8.92889Z" fill="#FBA51A"/>
<path d="M11.6725 9.012L11.5979 9.08948L25.9703 23.1166L26.0449 23.0391L11.6725 9.012Z" fill="#FBA51A"/>
<path d="M11.6004 9.08236L11.5257 9.15979L25.8884 23.197L25.963 23.1196L11.6004 9.08236Z" fill="#FBA51A"/>
<path d="M11.5149 9.1608L11.4403 9.23828L25.8126 23.2654L25.8872 23.1879L11.5149 9.1608Z" fill="#FBA51A"/>
<path d="M11.4486 9.23968L11.374 9.31714L25.7415 23.3493L25.8161 23.2718L11.4486 9.23968Z" fill="#FBA51A"/>
<path d="M11.3734 9.31454L11.2987 9.39197L25.6613 23.4292L25.736 23.3517L11.3734 9.31454Z" fill="#FBA51A"/>
<path d="M11.2972 9.39701L11.2226 9.47449L25.5949 23.5016L25.6695 23.4241L11.2972 9.39701Z" fill="#FBA51A"/>
<path d="M11.2218 9.47223L11.1471 9.54968L25.5146 23.5818L25.5893 23.5044L11.2218 9.47223Z" fill="#FBA51A"/>
<path d="M11.1467 9.55047L11.0721 9.62793L25.4396 23.6601L25.5142 23.5826L11.1467 9.55047Z" fill="#FBA51A"/>
<path d="M11.0733 9.63006L10.9986 9.70752L25.3661 23.7397L25.4408 23.6622L11.0733 9.63006Z" fill="#FBA51A"/>
<path d="M10.9915 9.7095L10.9169 9.78699L25.2892 23.8141L25.3638 23.7366L10.9915 9.7095Z" fill="#FBA51A"/>
<path d="M10.9227 9.78329L10.848 9.86072L25.2106 23.8979L25.2853 23.8205L10.9227 9.78329Z" fill="#FBA51A"/>
<path d="M10.8431 9.86197L10.7685 9.93945L25.1409 23.9665L25.2155 23.8891L10.8431 9.86197Z" fill="#FBA51A"/>
<path d="M10.7712 9.94086L10.6966 10.0183L25.0641 24.0505L25.1387 23.973L10.7712 9.94086Z" fill="#FBA51A"/>
<path d="M10.6976 10.0154L10.623 10.0929L24.9905 24.125L25.0651 24.0476L10.6976 10.0154Z" fill="#FBA51A"/>
<path d="M10.6229 10.0988L10.5482 10.1763L24.9157 24.2084L24.9904 24.131L10.6229 10.0988Z" fill="#FBA51A"/>
<path d="M10.5414 10.1781L10.4668 10.2556L24.8391 24.2827L24.9137 24.2052L10.5414 10.1781Z" fill="#FBA51A"/>
<path d="M10.4734 10.2483L10.3988 10.3257L24.7614 24.3629L24.8361 24.2855L10.4734 10.2483Z" fill="#FBA51A"/>
<path d="M10.393 10.3307L10.3184 10.4082L24.6908 24.4353L24.7654 24.3578L10.393 10.3307Z" fill="#FBA51A"/>
<path d="M10.3223 10.4059L10.2476 10.4834L24.6151 24.5155L24.6897 24.4381L10.3223 10.4059Z" fill="#FBA51A"/>
<path d="M10.2474 10.4842L10.1727 10.5616L24.5402 24.5938L24.6149 24.5163L10.2474 10.4842Z" fill="#FBA51A"/>
<path d="M10.1686 10.5638L10.0939 10.6412L24.4614 24.6734L24.5361 24.5959L10.1686 10.5638Z" fill="#FBA51A"/>
<path d="M10.0963 10.6468L10.0217 10.7242L24.3941 24.7513L24.4687 24.6739L10.0963 10.6468Z" fill="#FBA51A"/>
<path d="M10.0228 10.717L9.94812 10.7944L24.3107 24.8316L24.3854 24.7542L10.0228 10.717Z" fill="#FBA51A"/>
<path d="M9.94433 10.7957L9.86972 10.8732L24.2421 24.9003L24.3167 24.8228L9.94433 10.7957Z" fill="#FBA51A"/>
<path d="M9.87187 10.8746L9.79724 10.952L24.1647 24.9842L24.2394 24.9067L9.87187 10.8746Z" fill="#FBA51A"/>
<path d="M9.79305 10.9489L9.71841 11.0264L24.0859 25.0585L24.1605 24.9811L9.79305 10.9489Z" fill="#FBA51A"/>
<path d="M9.72353 11.0325L9.6489 11.11L24.0164 25.1421L24.091 25.0647L9.72353 11.0325Z" fill="#FBA51A"/>
<path d="M9.6447 11.1071L9.57007 11.1846L23.9376 25.2167L24.0122 25.1393L9.6447 11.1071Z" fill="#FBA51A"/>
<path d="M9.5729 11.1901L9.49829 11.2676L23.8706 25.2947L23.9453 25.2172L9.5729 11.1901Z" fill="#FBA51A"/>
<path d="M9.49864 11.2602L9.42398 11.3376L23.7866 25.3748L23.8613 25.2974L9.49864 11.2602Z" fill="#FBA51A"/>
<path d="M9.4154 11.344L9.34079 11.4215L23.7131 25.4486L23.7877 25.3711L9.4154 11.344Z" fill="#FBA51A"/>
<path d="M9.34801 11.4175L9.27338 11.495L23.6409 25.5271L23.7155 25.4497L9.34801 11.4175Z" fill="#FBA51A"/>
<path d="M9.273 11.4936L9.19836 11.571L23.5659 25.6032L23.6405 25.5257L9.273 11.4936Z" fill="#FBA51A"/>
<path d="M9.20333 11.5718L9.12869 11.6493L23.4962 25.6814L23.5708 25.604L9.20333 11.5718Z" fill="#FBA51A"/>
<path d="M9.12252 11.6509L9.04791 11.7284L23.4203 25.7555L23.4949 25.678L9.12252 11.6509Z" fill="#FBA51A"/>
<path d="M9.05177 11.7249L8.97711 11.8024L23.3397 25.8396L23.4144 25.7621L9.05177 11.7249Z" fill="#FBA51A"/>
<path d="M8.97433 11.8091L8.89972 11.8866L23.2721 25.9137L23.3467 25.8362L8.97433 11.8091Z" fill="#FBA51A"/>
<path d="M8.89763 11.879L8.823 11.9564L23.1905 25.9886L23.2651 25.9111L8.89763 11.879Z" fill="#FBA51A"/>
<path d="M8.82796 11.9622L8.75333 12.0397L23.1208 26.0718L23.1955 25.9944L8.82796 11.9622Z" fill="#FBA51A"/>
<path d="M8.74916 12.0368L8.67453 12.1143L23.042 26.1464L23.1167 26.069L8.74916 12.0368Z" fill="#FBA51A"/>
<path d="M8.67241 12.1195L8.59781 12.197L22.9702 26.2241L23.0448 26.1466L8.67241 12.1195Z" fill="#FBA51A"/>
<path d="M8.60267 12.19L8.52802 12.2675L22.8906 26.3047L22.9653 26.2272L8.60267 12.19Z" fill="#FBA51A"/>
<path d="M8.52407 12.2777L8.44946 12.3552L22.8218 26.3823L22.8964 26.3048L8.52407 12.2777Z" fill="#FBA51A"/>
<path d="M8.45232 12.3476L8.37769 12.425L22.7452 26.4572L22.8198 26.3797L8.45232 12.3476Z" fill="#FBA51A"/>
<path d="M8.3755 12.4224L8.30084 12.4999L22.6635 26.5371L22.7381 26.4596L8.3755 12.4224Z" fill="#FBA51A"/>
<path d="M8.29705 12.5103L8.22244 12.5878L22.5948 26.6149L22.6694 26.5374L8.29705 12.5103Z" fill="#FBA51A"/>
<path d="M8.22545 12.5798L8.15082 12.6572L22.5183 26.6894L22.5929 26.6119L8.22545 12.5798Z" fill="#FBA51A"/>
<path d="M8.15029 12.6638L8.07565 12.7412L22.4431 26.7734L22.5178 26.6959L8.15029 12.6638Z" fill="#FBA51A"/>
<path d="M8.07161 12.738L7.99698 12.8154L22.3645 26.8476L22.4391 26.7701L8.07161 12.738Z" fill="#FBA51A"/>
<path d="M8.00066 12.8211L7.92606 12.8986L22.2984 26.9257L22.373 26.8482L8.00066 12.8211Z" fill="#FBA51A"/>
<path d="M22.2894 26.9269L22.2144 27.0078L7.88354 13.0061V12.9414L7.92106 12.8982L22.2894 26.9269Z" fill="#FBA51A"/>
<path d="M22.2144 27.0077L22.1393 27.0832L7.88354 13.1571V13.006L22.2144 27.0077Z" fill="#FBA51A"/>
<path d="M22.1393 27.083L22.1072 27.1154H22.0214L7.88354 13.3079V13.1569L22.1393 27.083Z" fill="#FBA51A"/>
<path d="M21.866 27.1156L7.88354 13.4592V13.3081L22.0214 27.1156H21.866Z" fill="#FBA51A"/>
<path d="M21.7106 27.1156L7.88354 13.6103V13.4592L21.866 27.1156H21.7106Z" fill="#FBA51A"/>
<path d="M21.5552 27.1154L7.88354 13.7612V13.6101L21.7106 27.1154H21.5552Z" fill="#FBA51A"/>
<path d="M21.3998 27.1158L7.88354 13.9127V13.7616L21.5552 27.1158H21.3998Z" fill="#FBA51A"/>
<path d="M21.2443 27.1156L7.88354 14.0636V13.9125L21.3998 27.1156H21.2443Z" fill="#FBA51A"/>
<path d="M21.0889 27.1157L7.88354 14.2147V14.0636L21.2443 27.1157H21.0889Z" fill="#FBA51A"/>
<path d="M20.9335 27.1157L7.88354 14.3658V14.2147L21.0889 27.1157H20.9335Z" fill="#FBA51A"/>
<path d="M20.7834 27.1155L7.88354 14.5167V14.3656L20.9335 27.1155H20.7834Z" fill="#FBA51A"/>
<path d="M7.88354 14.5165L20.7834 27.1153H7.88354V14.5165Z" fill="#FBA51A"/>
</g>
<path d="M51.0967 25.624L48.9847 20.584V29.176H44.4247V15.184L43.1047 11.896H48.8167L52.1767 19.12L55.5367 11.896H59.9527V29.176H55.3927V20.632L53.2807 25.624H51.0967ZM67.6217 29.416C66.6777 29.416 65.8137 29.312 65.0297 29.104C64.2617 28.896 63.5977 28.528 63.0377 28C62.4777 27.472 62.0457 26.744 61.7417 25.816C61.4377 24.888 61.2857 23.704 61.2857 22.264C61.2857 19.928 61.7177 18.168 62.5817 16.984C63.4617 15.784 64.8697 15.184 66.8057 15.184C68.5657 15.184 69.8377 15.672 70.6217 16.648C71.4217 17.608 71.8217 19.04 71.8217 20.944C71.8217 21.392 71.8057 21.856 71.7737 22.336C71.7417 22.8 71.6857 23.224 71.6057 23.608H65.8697C65.9657 24.584 66.2377 25.24 66.6857 25.576C67.1337 25.896 67.8857 26.056 68.9417 26.056C69.3097 26.056 69.6857 26.024 70.0697 25.96C70.4697 25.896 70.8537 25.824 71.2217 25.744V29.008C70.6617 29.12 70.0697 29.216 69.4457 29.296C68.8377 29.376 68.2297 29.416 67.6217 29.416ZM66.9737 18.352C66.3337 18.352 65.9577 19.216 65.8457 20.944H67.8137C67.8137 20.592 67.7977 20.216 67.7657 19.816C67.7497 19.416 67.6777 19.072 67.5497 18.784C67.4377 18.496 67.2457 18.352 66.9737 18.352ZM77.0689 29.416C76.1889 29.416 75.4609 29.232 74.8849 28.864C74.3249 28.48 73.8769 27.96 73.5409 27.304C73.2209 26.648 72.9889 25.912 72.8449 25.096C72.7169 24.264 72.6529 23.392 72.6529 22.48C72.6529 19.856 73.0609 17.984 73.8769 16.864C74.7089 15.744 75.9009 15.184 77.4529 15.184C78.1569 15.184 78.9409 15.328 79.8049 15.616V11.704L84.1249 11.056V29.176H80.4529L80.0929 28.12C79.7409 28.52 79.3009 28.84 78.7729 29.08C78.2449 29.304 77.6769 29.416 77.0689 29.416ZM78.4849 26.056C78.6609 26.056 78.8609 26.024 79.0849 25.96C79.3089 25.896 79.5489 25.792 79.8049 25.648V18.688C79.4529 18.592 79.1249 18.544 78.8209 18.544C78.0849 18.544 77.6129 18.88 77.4049 19.552C77.2129 20.224 77.1169 21.24 77.1169 22.6C77.1169 23.864 77.2129 24.76 77.4049 25.288C77.5969 25.8 77.9569 26.056 78.4849 26.056ZM90.4869 25.144C90.4869 24.872 90.2869 24.608 89.8869 24.352L87.8229 23.008C87.0709 22.512 86.5269 21.976 86.1909 21.4C85.8549 20.824 85.6869 20.072 85.6869 19.144C85.6869 17.816 86.0789 16.832 86.8629 16.192C87.6469 15.536 88.9349 15.2 90.7269 15.184C91.3989 15.184 92.0149 15.216 92.5749 15.28C93.1509 15.328 93.6069 15.384 93.9429 15.448C94.2949 15.512 94.4709 15.544 94.4709 15.544L94.1109 18.736C94.1109 18.736 93.9909 18.72 93.7509 18.688C93.5109 18.656 93.1989 18.624 92.8149 18.592C92.4469 18.544 92.0629 18.52 91.6629 18.52C91.0869 18.52 90.6709 18.568 90.4149 18.664C90.1589 18.76 90.0309 18.944 90.0309 19.216C90.0309 19.376 90.0789 19.512 90.1749 19.624C90.2709 19.72 90.4229 19.832 90.6309 19.96L92.7429 21.328C93.5109 21.824 94.0629 22.36 94.3989 22.936C94.7349 23.496 94.9029 24.224 94.9029 25.12C94.9029 26.544 94.4949 27.616 93.6789 28.336C92.8629 29.04 91.5269 29.4 89.6709 29.416C88.8549 29.416 88.1029 29.368 87.4149 29.272C86.7429 29.192 86.1269 29.08 85.5669 28.936L85.9269 25.672C85.9269 25.672 86.2229 25.72 86.8149 25.816C87.4069 25.896 88.1909 25.936 89.1669 25.936C90.0469 25.936 90.4869 25.672 90.4869 25.144ZM96.336 32.776V15.376H100.008L100.368 16.48C100.736 16.064 101.176 15.744 101.688 15.52C102.216 15.296 102.784 15.184 103.392 15.184C104.272 15.184 104.992 15.376 105.552 15.76C106.128 16.128 106.576 16.64 106.896 17.296C107.232 17.952 107.464 18.696 107.592 19.528C107.736 20.344 107.808 21.208 107.808 22.12C107.808 24.744 107.4 26.616 106.584 27.736C105.768 28.856 104.576 29.416 103.008 29.416C102.304 29.416 101.52 29.272 100.656 28.984V32.152L96.336 32.776ZM101.64 26.056C102.376 26.056 102.84 25.72 103.032 25.048C103.24 24.376 103.344 23.36 103.344 22C103.344 20.736 103.248 19.848 103.056 19.336C102.864 18.808 102.504 18.544 101.976 18.544C101.816 18.544 101.624 18.576 101.4 18.64C101.176 18.704 100.928 18.808 100.656 18.952V25.912C101.024 26.008 101.352 26.056 101.64 26.056ZM112.466 29.416C111.826 29.416 111.226 29.256 110.666 28.936C110.106 28.6 109.65 28.12 109.298 27.496C108.946 26.872 108.77 26.12 108.77 25.24C108.77 23.864 109.25 22.824 110.21 22.12C111.186 21.416 112.442 21.064 113.978 21.064H115.01V19.744C115.01 19.28 114.85 18.968 114.53 18.808C114.21 18.632 113.802 18.544 113.306 18.544C112.698 18.544 112.114 18.6 111.554 18.712C110.994 18.824 110.434 18.984 109.874 19.192V15.832C110.594 15.672 111.338 15.528 112.106 15.4C112.89 15.256 113.674 15.184 114.458 15.184C115.338 15.184 116.146 15.296 116.882 15.52C117.618 15.728 118.21 16.112 118.658 16.672C119.106 17.232 119.33 18.032 119.33 19.072V29.176H115.586L115.298 28.144C114.898 28.576 114.45 28.896 113.954 29.104C113.458 29.312 112.962 29.416 112.466 29.416ZM114.146 26.248C114.466 26.248 114.754 26.104 115.01 25.816V23.44H114.698C114.218 23.44 113.81 23.56 113.474 23.8C113.138 24.024 112.97 24.368 112.97 24.832C112.97 25.28 113.09 25.632 113.33 25.888C113.57 26.128 113.842 26.248 114.146 26.248ZM126.725 29.416C125.861 29.416 125.061 29.304 124.325 29.08C123.589 28.856 122.941 28.48 122.381 27.952C121.837 27.424 121.413 26.696 121.109 25.768C120.805 24.84 120.653 23.672 120.653 22.264C120.653 20.888 120.829 19.744 121.181 18.832C121.549 17.92 122.045 17.2 122.669 16.672C123.293 16.144 123.997 15.768 124.781 15.544C125.565 15.304 126.389 15.184 127.253 15.184C127.813 15.184 128.325 15.224 128.789 15.304C129.253 15.384 129.733 15.504 130.229 15.664V21.064H127.757L127.277 18.568C126.557 18.568 126.013 18.84 125.645 19.384C125.293 19.928 125.117 20.904 125.117 22.312C125.117 23.32 125.245 24.096 125.501 24.64C125.757 25.184 126.117 25.552 126.581 25.744C127.045 25.936 127.597 26.008 128.237 25.96C128.877 25.896 129.573 25.768 130.325 25.576V28.984C129.829 29.128 129.245 29.232 128.573 29.296C127.901 29.376 127.285 29.416 126.725 29.416ZM137.676 29.416C136.732 29.416 135.868 29.312 135.084 29.104C134.316 28.896 133.652 28.528 133.092 28C132.532 27.472 132.1 26.744 131.796 25.816C131.492 24.888 131.34 23.704 131.34 22.264C131.34 19.928 131.772 18.168 132.636 16.984C133.516 15.784 134.924 15.184 136.86 15.184C138.62 15.184 139.892 15.672 140.676 16.648C141.476 17.608 141.876 19.04 141.876 20.944C141.876 21.392 141.86 21.856 141.828 22.336C141.796 22.8 141.74 23.224 141.66 23.608H135.924C136.02 24.584 136.292 25.24 136.74 25.576C137.188 25.896 137.94 26.056 138.996 26.056C139.364 26.056 139.74 26.024 140.124 25.96C140.524 25.896 140.908 25.824 141.276 25.744V29.008C140.716 29.12 140.124 29.216 139.5 29.296C138.892 29.376 138.284 29.416 137.676 29.416ZM137.028 18.352C136.388 18.352 136.012 19.216 135.9 20.944H137.868C137.868 20.592 137.852 20.216 137.82 19.816C137.804 19.416 137.732 19.072 137.604 18.784C137.492 18.496 137.3 18.352 137.028 18.352ZM148.708 20.656C148.708 18.384 148.972 16.6 149.5 15.304C150.028 13.992 150.82 13.064 151.876 12.52C152.948 11.976 154.276 11.704 155.86 11.704C156.372 11.704 156.956 11.736 157.612 11.8C158.284 11.848 158.932 11.944 159.556 12.088V18.424H156.652L156.268 15.52C155.836 15.52 155.46 15.576 155.14 15.688C154.836 15.784 154.58 16 154.372 16.336C154.164 16.672 154.004 17.184 153.892 17.872C153.796 18.56 153.748 19.48 153.748 20.632C153.748 21.88 153.884 22.864 154.156 23.584C154.428 24.288 154.836 24.792 155.38 25.096C155.94 25.384 156.652 25.528 157.516 25.528C157.9 25.528 158.268 25.504 158.62 25.456C158.972 25.408 159.348 25.352 159.748 25.288V29.08C159.284 29.192 158.724 29.272 158.068 29.32C157.412 29.384 156.828 29.416 156.316 29.416C153.58 29.416 151.628 28.68 150.46 27.208C149.292 25.736 148.708 23.552 148.708 20.656ZM166.518 29.416C165.094 29.416 163.942 29.176 163.062 28.696C162.198 28.216 161.566 27.456 161.166 26.416C160.782 25.36 160.59 23.984 160.59 22.288C160.59 20.592 160.782 19.224 161.166 18.184C161.566 17.144 162.198 16.384 163.062 15.904C163.942 15.424 165.094 15.184 166.518 15.184C167.958 15.184 169.11 15.424 169.974 15.904C170.838 16.384 171.462 17.144 171.846 18.184C172.246 19.224 172.446 20.592 172.446 22.288C172.446 23.984 172.246 25.36 171.846 26.416C171.462 27.456 170.838 28.216 169.974 28.696C169.11 29.176 167.958 29.416 166.518 29.416ZM166.494 26.032C167.038 26.032 167.422 25.744 167.646 25.168C167.87 24.576 167.982 23.624 167.982 22.312C167.982 20.984 167.87 20.032 167.646 19.456C167.422 18.864 167.038 18.568 166.494 18.568C165.966 18.568 165.59 18.864 165.366 19.456C165.158 20.032 165.054 20.984 165.054 22.312C165.054 23.624 165.158 24.576 165.366 25.168C165.59 25.744 165.966 26.032 166.494 26.032ZM177.875 16.312C178.819 15.56 179.843 15.184 180.947 15.184C182.051 15.184 182.963 15.528 183.683 16.216C184.419 16.904 184.787 17.936 184.787 19.312V29.176H180.467V20.008C180.467 19.032 180.027 18.544 179.147 18.544C178.795 18.544 178.483 18.632 178.211 18.808V29.176H173.891V15.376H177.563L177.875 16.312ZM190.578 16.312C191.522 15.56 192.546 15.184 193.65 15.184C194.754 15.184 195.666 15.528 196.386 16.216C197.122 16.904 197.49 17.936 197.49 19.312V29.176H193.17V20.008C193.17 19.032 192.73 18.544 191.85 18.544C191.498 18.544 191.186 18.632 190.914 18.808V29.176H186.594V15.376H190.266L190.578 16.312ZM205.153 29.416C204.209 29.416 203.345 29.312 202.561 29.104C201.793 28.896 201.129 28.528 200.569 28C200.009 27.472 199.577 26.744 199.273 25.816C198.969 24.888 198.817 23.704 198.817 22.264C198.817 19.928 199.249 18.168 200.113 16.984C200.993 15.784 202.401 15.184 204.337 15.184C206.097 15.184 207.369 15.672 208.153 16.648C208.953 17.608 209.353 19.04 209.353 20.944C209.353 21.392 209.337 21.856 209.305 22.336C209.273 22.8 209.217 23.224 209.137 23.608H203.401C203.497 24.584 203.769 25.24 204.217 25.576C204.665 25.896 205.417 26.056 206.473 26.056C206.841 26.056 207.217 26.024 207.601 25.96C208.001 25.896 208.385 25.824 208.753 25.744V29.008C208.193 29.12 207.601 29.216 206.977 29.296C206.369 29.376 205.761 29.416 205.153 29.416ZM204.505 18.352C203.865 18.352 203.489 19.216 203.377 20.944H205.345C205.345 20.592 205.329 20.216 205.297 19.816C205.281 19.416 205.209 19.072 205.081 18.784C204.969 18.496 204.777 18.352 204.505 18.352ZM216.256 29.416C215.392 29.416 214.592 29.304 213.856 29.08C213.12 28.856 212.472 28.48 211.912 27.952C211.368 27.424 210.944 26.696 210.64 25.768C210.336 24.84 210.184 23.672 210.184 22.264C210.184 20.888 210.36 19.744 210.712 18.832C211.08 17.92 211.576 17.2 212.2 16.672C212.824 16.144 213.528 15.768 214.312 15.544C215.096 15.304 215.92 15.184 216.784 15.184C217.344 15.184 217.856 15.224 218.32 15.304C218.784 15.384 219.264 15.504 219.76 15.664V21.064H217.288L216.808 18.568C216.088 18.568 215.544 18.84 215.176 19.384C214.824 19.928 214.648 20.904 214.648 22.312C214.648 23.32 214.776 24.096 215.032 24.64C215.288 25.184 215.648 25.552 216.112 25.744C216.576 25.936 217.128 26.008 217.768 25.96C218.408 25.896 219.104 25.768 219.856 25.576V28.984C219.36 29.128 218.776 29.232 218.104 29.296C217.432 29.376 216.816 29.416 216.256 29.416ZM226.752 15.376H229.368V18.616H226.752V24.592C226.752 25.04 226.864 25.368 227.088 25.576C227.328 25.784 227.704 25.888 228.216 25.888C228.472 25.888 228.696 25.88 228.888 25.864C229.08 25.832 229.24 25.8 229.368 25.768V28.96C228.984 29.088 228.576 29.192 228.144 29.272C227.728 29.368 227.304 29.416 226.872 29.416C225.4 29.416 224.288 29.104 223.536 28.48C222.8 27.84 222.432 26.704 222.432 25.072V18.616H220.632V15.376H222.432V12.352H226.752V15.376Z" fill="#0A8FDC"/>
<defs>
<linearGradient id="paint0_linear_95_4269" x1="24.517" y1="2.78003" x2="24.517" y2="33.5688" gradientUnits="userSpaceOnUse">
<stop stop-color="#5EC4FF"/>
<stop offset="1" stop-color="#0A8FDC"/>
</linearGradient>
</defs>
</svg>
